<svg width="59" height="59" viewBox="0 0 59 59" fill="none" xmlns="http://www.w3.org/2000/svg">
<circle cx="29.5" cy="29.5" r="29.5" fill="#0FA1F4"/>
<path d="M28.7958 12.9783C29.6283 12.9058 30.2422 13.3298 31.0046 13.9639C31.7658 14.598 32.6077 15.4304 33.8249 15.757C35.0421 16.0824 36.1833 15.7808 37.1594 15.6133C38.1367 15.4447 38.8824 15.3841 39.5676 15.8627C40.2516 16.3424 40.4488 17.0621 40.6245 18.0394C40.8003 19.0143 40.9107 20.1911 41.6339 21.2231C42.3571 22.2562 43.4234 22.7609 44.2796 23.2596C45.137 23.7584 45.7474 24.1918 45.9635 24.9993C46.1796 25.8068 45.8673 26.4837 45.3745 27.3434C44.8829 28.2044 44.2096 29.1781 44.0991 30.4333C43.9899 31.6885 44.4851 32.7608 44.8199 33.6942C45.156 34.6276 45.3448 35.3496 44.9921 36.106C44.6394 36.8636 43.9626 37.1866 43.0328 37.5286C42.1018 37.8706 40.9618 38.1818 40.0699 39.0724C39.1793 39.963 38.8682 41.1042 38.5262 42.0352C38.183 42.965 37.8636 43.6383 37.1059 43.9922C36.3495 44.3449 35.6251 44.1561 34.6918 43.82C33.7596 43.4851 32.6861 42.9923 31.4309 43.1016C30.1757 43.212 29.2043 43.8853 28.3434 44.3769C27.4836 44.8698 26.8032 45.1797 25.9969 44.9636C25.1894 44.7474 24.7559 44.1394 24.2572 43.2821C23.7584 42.4259 23.2561 41.3571 22.223 40.6339C21.1899 39.9108 20.0143 39.8027 19.0393 39.6269C18.0632 39.4512 17.3424 39.2517 16.8638 38.5677C16.3841 37.8825 16.4446 37.1391 16.6133 36.1618C16.7807 35.1857 17.0799 34.0421 16.7546 32.8249C16.428 31.6066 15.5956 30.7682 14.9614 30.007C14.3273 29.2446 13.9034 28.6283 13.9758 27.7959C14.0483 26.9646 14.5731 26.4326 15.3296 25.7926C16.0872 25.1513 17.0514 24.4697 17.5846 23.3273C18.1178 22.1849 18.0216 21.0081 18.0252 20.0178C18.0288 19.0262 18.0976 18.2816 18.689 17.6903C19.2792 17.1001 20.0238 17.0288 21.0153 17.0253C22.0057 17.0253 23.1849 17.1203 24.3273 16.5859C25.4696 16.0539 26.1524 15.0896 26.7925 14.332C27.4326 13.5756 27.9646 13.0507 28.7958 12.9783ZM28.9609 15.3556C27.8921 15.4494 27.2058 16.156 26.669 16.7913C26.1323 17.4254 25.681 18.0144 25.0944 18.2876C24.5089 18.5607 23.7691 18.5274 22.9379 18.531C22.1066 18.531 21.121 18.6082 20.3634 19.3658C19.6058 20.1234 19.5333 21.1055 19.5309 21.9379C19.5274 22.7692 19.5583 23.509 19.2851 24.0944C19.012 24.6811 18.4242 25.1323 17.7889 25.6691C17.1536 26.207 16.447 26.8958 16.352 27.9633C16.2594 29.0321 16.8365 29.8289 17.3685 30.4689C17.9005 31.1066 18.4016 31.6553 18.5679 32.2799C18.7353 32.9045 18.5774 33.6289 18.4361 34.4483C18.2936 35.2676 18.1938 36.2485 18.8089 37.1273C19.4241 38.0048 20.38 38.2459 21.1982 38.3931C22.0176 38.5404 22.7514 38.6389 23.2811 39.0106C23.8107 39.3811 24.1539 40.0354 24.5731 40.7539C24.9911 41.4735 25.5468 42.2905 26.5811 42.5684C27.6166 42.8451 28.5037 42.4152 29.2257 42.0019C29.9465 41.5887 30.5735 41.1944 31.2171 41.1374C31.8619 41.0816 32.5459 41.3607 33.3285 41.6421C34.1111 41.9236 35.0587 42.1931 36.0301 41.7407C37.0014 41.2871 37.4064 40.3893 37.6926 39.6091C37.9799 38.8278 38.2056 38.1224 38.6628 37.6652C39.1199 37.208 39.8265 36.9824 40.6067 36.695C41.3869 36.4076 42.287 36.0039 42.7406 35.0325C43.1931 34.0611 42.9247 33.1135 42.6421 32.3309C42.3606 31.5472 42.078 30.862 42.135 30.2172C42.1908 29.5736 42.5886 28.9489 43.0019 28.2281C43.4151 27.5061 43.8426 26.6167 43.5659 25.5812C43.2881 24.5457 42.4734 23.9911 41.7538 23.5731C41.0354 23.1539 40.3787 22.8131 40.0082 22.2835C39.6365 21.7539 39.5403 21.0188 39.3931 20.2006C39.2458 19.3813 39.0024 18.4265 38.1248 17.8114C37.2461 17.1963 36.2652 17.2948 35.4458 17.4361C34.6264 17.5774 33.9044 17.7378 33.2798 17.5703C32.6552 17.4041 32.1066 16.9029 31.4677 16.3709C30.8288 15.8389 30.0284 15.2618 28.9609 15.3556ZM29.0654 16.536V16.5384C29.6698 16.4861 30.1139 16.7878 30.7077 17.2829C31.3014 17.7769 31.9748 18.4491 32.9711 18.7163C33.9686 18.9834 34.8865 18.7364 35.6477 18.6046C36.4077 18.474 36.9456 18.4336 37.4432 18.7816C37.9396 19.1283 38.0868 19.6484 38.2246 20.4084C38.3611 21.1684 38.4443 22.1149 39.0356 22.9616C39.6282 23.8047 40.4879 24.2084 41.1565 24.5979C41.8239 24.9863 42.2633 25.3021 42.42 25.8876C42.5768 26.473 42.3535 26.9634 41.9699 27.6332C41.5864 28.3041 41.0413 29.0855 40.9523 30.1127C40.862 31.1411 41.2634 32.0032 41.5246 32.7299C41.7859 33.4567 41.9201 33.9792 41.6636 34.529C41.4071 35.0788 40.9202 35.3104 40.1958 35.5776C39.4714 35.8448 38.5523 36.0918 37.8232 36.8209C37.0941 37.55 36.8471 38.4715 36.5799 39.1959C36.3127 39.9203 36.0788 40.4048 35.5289 40.6613C34.9791 40.9178 34.4566 40.7859 33.7299 40.5247C33.0019 40.2634 32.141 39.8597 31.1126 39.9499C30.0854 40.0402 29.3076 40.5864 28.6367 40.9712C27.9658 41.3536 27.4729 41.5744 26.8875 41.4177C26.3021 41.2609 25.9862 40.8239 25.5979 40.1566C25.2096 39.488 24.8082 38.6247 23.9627 38.0333C23.1172 37.4419 22.1696 37.3588 21.4096 37.2223C20.6496 37.0845 20.1283 36.9396 19.7815 36.4433C19.4336 35.9457 19.4751 35.4089 19.6069 34.6478C19.7376 33.8866 19.9834 32.9674 19.7162 31.9711C19.449 30.9736 18.7781 30.3015 18.2829 29.7078C17.7889 29.114 17.4825 28.6675 17.5348 28.0631C17.5882 27.4586 17.967 27.0727 18.556 26.5739C19.1462 26.0752 19.9252 25.5301 20.361 24.5956C20.7968 23.661 20.7149 22.7122 20.7173 21.9403C20.7208 21.1684 20.7743 20.6317 21.2029 20.203C21.6304 19.7743 22.1672 19.7185 22.9403 19.7161C23.7121 19.7161 24.6609 19.7969 25.5955 19.3599C26.5301 18.9253 27.0775 18.1463 27.5763 17.5561C28.075 16.9659 28.4609 16.5883 29.0654 16.5348V16.536ZM30.0759 20.6994C29.4347 20.6982 28.7994 20.8276 28.1914 21.0794C27.5577 21.3473 26.9864 21.7435 26.5134 22.2431L25.9043 22.8654L25.8995 22.8773C25.5908 23.2109 25.4055 23.6468 25.3889 24.1004C25.3723 24.5457 25.5124 24.9886 25.7784 25.3496L25.7903 25.3651L25.8021 25.3793C26.0954 25.7273 26.5158 25.9683 26.9659 25.9968C27.4171 26.0241 27.8684 25.8282 28.1938 25.5076H28.1973L28.7958 24.8948C28.9725 24.7157 29.1822 24.5726 29.4133 24.4733C29.6381 24.3798 29.8799 24.3344 30.1233 24.34C30.3666 24.3455 30.6061 24.4018 30.8264 24.5053C31.0568 24.6122 31.2694 24.7844 31.4772 25.0409C31.6506 25.2653 31.7776 25.4981 31.8619 25.7558C31.9498 26.017 31.9949 26.2913 31.9949 26.5858C31.9949 26.9183 31.9403 27.2247 31.8323 27.518C31.726 27.8054 31.5591 28.0667 31.343 28.2839H31.3454L25.5706 34.1953L25.5611 34.2072C25.2642 34.5421 25.0861 34.9743 25.0671 35.4196C25.0481 35.8709 25.1977 36.3209 25.4756 36.6819C25.6276 36.8826 25.8283 37.0477 26.0574 37.1546H26.0598C26.2688 37.2519 26.5028 37.3089 26.7438 37.3089H33.7049C34.1419 37.2888 34.5837 37.0976 34.8853 36.7579H34.8877C35.1846 36.4219 35.3354 35.9742 35.3437 35.5146V35.4909C35.3425 35.0355 35.1829 34.5947 34.8924 34.244C34.654 33.9733 34.3338 33.7878 33.9804 33.7156L33.9389 33.6716H33.6954L33.7085 33.6776L33.6954 33.6752H30.9381L33.6361 30.9154H33.6384C34.1957 30.338 34.6297 29.6532 34.9138 28.9026C35.1976 28.1569 35.3413 27.3791 35.3425 26.5834C35.3429 25.8857 35.2327 25.1923 35.0159 24.5291C34.7962 23.8502 34.4523 23.218 34.0018 22.6647C33.5148 22.0511 32.8985 21.5524 32.1968 21.2041C31.537 20.8785 30.8117 20.7076 30.0759 20.7041V20.6994Z" fill="#F7F7F7"/>
</svg>
