<svg width="24" height="24" viewBox="0 0 24 24" fill="none" xmlns="http://www.w3.org/2000/svg">
<path d="M8.55356 0.505093C10.0697 0.0480371 11.676 -0.098995 13.2499 0.0646758C14.7687 0.222234 16.2572 0.675215 17.606 1.39611C19.6881 2.4997 21.4307 4.23692 22.5517 6.3188C23.5431 8.14906 24.0439 10.2425 23.997 12.3261C23.9629 14.0538 23.559 15.7747 22.8068 17.3289C22.1602 18.6763 21.2606 19.8997 20.1716 20.9181C18.4388 22.5416 16.2194 23.6458 13.8752 23.9976C13.8782 21.1874 13.8765 18.3768 13.8758 15.5665C14.8072 15.5628 15.7386 15.5659 16.6699 15.5652C16.8508 14.4028 17.0226 13.2392 17.2044 12.0772C16.0952 12.0673 14.9857 12.0758 13.8765 12.0731C13.8768 11.2979 13.8762 10.5226 13.8768 9.7474C13.8833 9.2625 14.0297 8.75247 14.3884 8.41155C14.7465 8.06145 15.2611 7.93649 15.747 7.92563C16.2788 7.92325 16.811 7.92563 17.3428 7.92461C17.3438 6.93477 17.3408 5.94528 17.3445 4.95578C16.5721 4.82573 15.7905 4.74865 15.0076 4.7225C14.3827 4.69873 13.7496 4.74118 13.1452 4.9113C12.6063 5.05935 12.0927 5.30995 11.6578 5.66412C11.2015 6.03085 10.8408 6.51134 10.5951 7.0431C10.3154 7.64515 10.1784 8.30696 10.1386 8.96809C10.1173 9.2608 10.1274 9.55453 10.1251 9.84791C10.1251 10.5895 10.1254 11.3311 10.1251 12.0727C9.10968 12.0724 8.09463 12.0744 7.07958 12.0717C7.07384 13.2361 7.07823 14.4005 7.07722 15.5648C8.09362 15.5676 9.11035 15.5601 10.1268 15.5686C10.1234 18.3792 10.1254 21.1894 10.1257 24C7.57023 23.6119 5.16488 22.3392 3.37302 20.4685C2.48249 19.5439 1.74179 18.4739 1.18466 17.3146C0.529664 15.9472 0.135522 14.4541 0.0309122 12.9397C-0.109467 10.9776 0.229332 8.98066 1.02572 7.183C1.81164 5.39518 3.03894 3.80737 4.56388 2.59648C5.74698 1.65452 7.10792 0.939398 8.55356 0.505093Z" fill="#1877F2"/>
</svg>
