<svg width="352" height="348" viewBox="0 0 352 348" fill="none" xmlns="http://www.w3.org/2000/svg">
<rect x="73.2458" width="288" height="283" rx="54" transform="rotate(15 73.2458 0)" fill="#0FA1F4"/>
<path d="M279.255 130.743L232.292 177.712L187.676 222.328L173.428 236.576C167.318 242.68 155.111 242.68 149.008 236.576L87.9532 175.522C84.0077 171.576 82.6102 165.082 83.7672 159.343C84.3912 156.19 85.7887 153.259 87.9532 151.095L102.201 136.853C108.298 130.743 120.512 130.743 126.622 136.853L161.221 171.452L208.723 123.944L230.186 102.475L240.586 92.0814C246.696 85.9714 258.91 85.9714 265.007 92.0814L279.255 106.323C280.919 107.993 282.134 110.112 282.888 112.439C284.91 118.64 283.694 126.303 279.255 130.743Z" fill="white"/>
</svg>
