<svg width="24" height="25" viewBox="0 0 24 25" fill="none" xmlns="http://www.w3.org/2000/svg">
<path d="M11.4229 0.0235584C12.6091 -0.0426495 13.8072 0.0264687 14.968 0.284752C17.0025 0.724926 18.9065 1.72314 20.4218 3.13024C20.4281 3.17426 20.3805 3.19899 20.358 3.22955C19.2337 4.32562 18.1261 5.43952 16.9981 6.53158C16.897 6.48102 16.8258 6.38971 16.7402 6.31877C16.1808 5.84659 15.5469 5.45589 14.8599 5.19142C14.2352 4.94368 13.5714 4.79999 12.9017 4.74069C12.1582 4.70286 11.404 4.71414 10.6772 4.88875C9.30088 5.19542 8.02864 5.91898 7.05196 6.92046C6.27231 7.71241 5.68379 8.68007 5.3174 9.72157C3.98465 8.6928 2.64195 7.67676 1.30957 6.64799C2.59656 4.10481 4.83035 2.04545 7.48772 0.945013C8.7345 0.422261 10.072 0.114503 11.4229 0.0235584Z" fill="#E33E2B"/>
<path d="M1.28584 6.63354C1.29138 6.63718 1.30244 6.64446 1.30798 6.6481C2.64036 7.67687 3.98306 8.6929 5.31581 9.72167C5.13058 10.2823 5.0055 10.8621 4.94794 11.4489C4.94794 11.7519 4.8937 12.0546 4.93576 12.3573C4.94868 12.9586 5.05531 13.5566 5.22615 14.134C5.25235 14.2329 5.30991 14.3315 5.28297 14.437C5.20696 14.5268 5.10144 14.5847 5.0103 14.6578C3.95724 15.4643 2.90418 16.2708 1.85075 17.0769C1.69762 17.1977 1.53527 17.3072 1.38952 17.4371C1.35595 17.4378 1.32274 17.4389 1.28953 17.44L1.27182 17.4404C0.682563 16.2424 0.261928 14.9543 0.104744 13.6294C0.040542 13.3438 0.0608358 13.047 0.0113928 12.7589C-0.00447325 12.3103 -0.00262867 11.8611 0.00991656 11.4125C0.0545628 11.0775 0.0508733 10.7377 0.113968 10.4049C0.192192 9.84972 0.312478 9.30078 0.462283 8.7602C0.615409 8.26764 0.782556 7.77836 0.992873 7.30654C1.08217 7.07881 1.21795 6.86964 1.28584 6.63354Z" fill="#E33E2B"/>
<path d="M12.247 11.1571C12.2507 10.7053 12.2393 10.2531 12.2533 9.80127C16.0899 9.80527 19.9269 9.80382 23.7635 9.802C23.9329 10.6423 24.0041 11.5012 23.9986 12.3579C24.0093 14.0244 23.7211 15.6989 23.1009 17.2519C22.5009 18.7557 21.57 20.1363 20.3608 21.2305C19.2417 20.3702 18.1186 19.516 16.9995 18.656C16.8681 18.5524 16.7338 18.452 16.5973 18.3548C16.5482 18.3268 16.5316 18.2726 16.5106 18.2253C17.4267 17.6004 18.1621 16.7171 18.5794 15.6967C18.7255 15.3165 18.8624 14.9262 18.9115 14.5206C16.6917 14.521 14.4716 14.517 12.2515 14.5228C12.2411 13.4009 12.25 12.279 12.247 11.1571Z" fill="#E33E2B"/>
<path d="M5.2825 14.4369L5.31091 14.4023C5.78283 15.7971 6.68498 17.0445 7.86533 17.9423C8.86231 18.7033 10.063 19.2072 11.3145 19.3665C12.2853 19.4927 13.2782 19.4251 14.2309 19.2057C15.043 19.0194 15.819 18.6848 16.5108 18.2257C16.5319 18.273 16.5485 18.3272 16.5975 18.3552C16.7341 18.4523 16.8684 18.5527 16.9997 18.6564C18.1188 19.5164 19.242 20.3705 20.3611 21.2309C19.2892 22.2083 18.0067 22.9548 16.6311 23.4343C15.2939 23.8992 13.8752 24.1316 12.4584 24.1389C12.1632 24.172 11.8676 24.1236 11.5721 24.1269C9.10399 24.0047 6.6835 23.1087 4.73752 21.6074C3.36935 20.5608 2.22995 19.2243 1.42042 17.7146C1.37098 17.6258 1.31858 17.5374 1.28906 17.4399C1.32227 17.4388 1.35548 17.4377 1.38906 17.437C1.5348 17.3071 1.69715 17.1976 1.85028 17.0769C2.90371 16.2707 3.95676 15.4642 5.00982 14.6577C5.10096 14.5846 5.20649 14.5268 5.2825 14.4369Z" fill="#E33E2B"/>
</svg>
