<svg width="59" height="59" viewBox="0 0 59 59" fill="none" xmlns="http://www.w3.org/2000/svg">
<circle cx="29.5" cy="29.5" r="29.5" fill="#F93838" fill-opacity="0.55"/>
<g clip-path="url(#clip0_107_3)">
<path fill-rule="evenodd" clip-rule="evenodd" d="M35.0677 9.31385C35.3102 9.33833 35.3747 9.37053 35.4989 9.43364C35.9469 9.65905 36.1918 10.1871 36.187 10.7539C36.1583 14.0229 35.6697 17.3795 34.1741 20.0805C33.2185 21.8077 30.9918 22.0473 28.985 22.028C27.604 22.0151 26.1634 21.8709 24.9927 21.2178C23.9559 20.6382 23.3932 19.278 22.9548 17.9552C22.1783 15.6149 21.8522 13.1007 21.8546 10.6109C21.8546 10.6109 21.906 9.98878 22.2345 9.65776C22.4173 9.47486 22.6526 9.35508 22.8999 9.32159C22.9668 9.31257 22.9835 9.31386 23.0492 9.31128H34.9924C35.0175 9.31257 35.0426 9.31385 35.0677 9.31385Z" fill="#F57C00"/>
<path fill-rule="evenodd" clip-rule="evenodd" d="M28.9989 9.31128H34.9915C35.0166 9.31257 35.0417 9.31385 35.0668 9.31385C35.3094 9.33833 35.3739 9.37053 35.4982 9.43364C35.9464 9.65905 36.1914 10.1871 36.1866 10.7539C36.158 14.0229 35.6691 17.3795 34.1728 20.0805C33.219 21.8026 31.002 22.046 28.9989 22.028V9.31128Z" fill="#EF6C00"/>
<path fill-rule="evenodd" clip-rule="evenodd" d="M36.2076 7.83618C36.2378 7.83762 36.268 7.83906 36.2982 7.83906C36.59 7.86637 36.6676 7.90231 36.8171 7.97275C37.3562 8.22431 37.6509 8.81369 37.6451 9.44619C37.6106 13.0946 37.0227 16.8407 35.2229 19.8551C34.0758 21.7771 31.4093 22.0487 29 22.0286V21.8302C30.4088 21.5744 31.6551 21.0152 32.3479 19.8551C34.1477 16.8407 34.7356 13.0946 34.7701 9.44619C34.7759 8.81369 34.4812 8.22431 33.9421 7.97275C33.7926 7.90231 33.715 7.86637 33.4232 7.83906C33.393 7.83906 33.3628 7.83762 33.3326 7.83618H36.2076Z" fill="#E65100"/>
<path fill-rule="evenodd" clip-rule="evenodd" d="M34.9642 22.1796C36.1531 22.227 37.0558 23.2074 37.7444 24.0296C40.8335 27.7154 42.7756 32.37 43.2888 37.0088C43.6554 40.3165 43.1163 43.9318 40.0745 45.9918C37.8594 47.4911 35.085 47.8317 32.4874 47.9755C28.6881 48.1854 24.85 48.3133 21.1786 47.3717C18.9735 46.8054 16.8244 45.5734 15.6946 43.5049C14.1665 40.7075 14.5 37.1827 15.3079 34.0245C16.2437 30.3675 17.8479 26.8687 20.4484 23.9491C21.1872 23.1183 22.0339 22.2845 23.1394 22.2126C23.1811 22.2112 23.2227 22.2097 23.2644 22.2083L34.5962 22.2054C34.5962 22.2054 34.7357 22.1824 34.8809 22.1781C34.9226 22.1781 34.9226 22.1781 34.9642 22.1796Z" fill="#F57C00"/>
<path fill-rule="evenodd" clip-rule="evenodd" d="M29 22.2069L34.5962 22.2054C34.5962 22.2054 34.7356 22.1824 34.8808 22.1781C34.9225 22.1781 34.9225 22.1781 34.9642 22.1796C36.153 22.227 37.0557 23.2074 37.7443 24.0296C40.8335 27.7154 42.7756 32.37 43.2888 37.0088C43.6553 40.3165 43.1162 43.9318 40.0745 45.9918C37.8593 47.4911 35.0849 47.8317 32.4874 47.9755C31.3259 48.0387 30.1615 48.0963 29 48.1164V22.2069Z" fill="#EF6C00"/>
<path fill-rule="evenodd" clip-rule="evenodd" d="M32.358 22.2054H34.5962C34.5962 22.2054 34.7356 22.1824 34.8808 22.1781C34.9225 22.1781 34.9225 22.1781 34.9642 22.1796C36.153 22.227 37.0557 23.2074 37.7443 24.0296C40.8335 27.7154 42.7756 32.37 43.2888 37.0088C43.6553 40.3165 43.1162 43.9318 40.0745 45.9918C37.8593 47.4911 35.0849 47.8317 32.4874 47.9755C31.3259 48.0387 30.1615 48.0963 29 48.1164V48.0086C29.2056 47.9971 29.4097 47.987 29.6138 47.9755C32.2128 47.8317 34.9872 47.4911 37.2009 45.9918C40.2427 43.9318 40.7832 40.3165 40.4166 37.0088C39.9034 32.37 37.9614 27.7154 34.8722 24.0296C34.2354 23.2706 33.416 22.3751 32.358 22.2054Z" fill="#E65100"/>
<path d="M27.584 28.368V27.9583C27.5941 27.6636 27.6243 27.5831 27.6861 27.4293C27.873 26.9535 28.3301 26.597 28.8419 26.5323C29.0144 26.5108 29.0561 26.5223 29.1121 26.5237C29.3881 26.5496 29.4327 26.5754 29.5505 26.6214C30.0264 26.8097 30.3829 27.2654 30.4476 27.7772C30.4576 27.8577 30.4562 27.8778 30.459 27.9583V28.368C32.3235 28.6943 34.0657 29.6689 34.622 31.45C34.6939 31.6786 34.7414 31.9172 34.7601 32.1572C34.7687 32.2622 34.7744 32.3686 34.7687 32.4749C34.7227 33.5559 33.173 34.2962 32.3105 33.4208C31.9684 33.0744 31.99 32.4591 31.8175 32.1759C31.5415 31.7246 31.0441 31.4356 30.459 31.2732V33.8319C32.2689 34.1496 33.9579 35.0811 34.5732 36.7659C34.9081 37.683 34.7902 38.7439 34.2857 39.5862C33.5094 40.8786 32.0633 41.6534 30.459 41.9322V42.3304C30.4346 43.1239 29.7187 43.8139 28.931 43.7651C28.2712 43.7234 27.6789 43.1714 27.5955 42.5101C27.5855 42.4311 27.5869 42.4095 27.584 42.3304V41.9179C27.5438 41.9107 27.5021 41.9021 27.4619 41.8949C25.4939 41.5067 23.3937 40.3769 23.2773 38.0352C23.2241 36.9829 24.4589 36.0342 25.4623 36.6509C25.8763 36.9053 26.1351 37.3754 26.148 37.8684C26.1609 38.3759 26.7934 38.6993 27.4331 38.9178C27.4834 38.9351 27.5337 38.9509 27.584 38.9667V36.4583C25.7196 36.1377 23.9443 35.1688 23.4024 33.3159C22.9582 31.7964 23.8336 30.1146 25.2539 29.2362C25.9654 28.7949 26.7589 28.5146 27.584 28.368ZM30.459 36.7831V38.9839C30.781 38.8819 31.0844 38.7396 31.3575 38.5556C31.6148 38.3831 31.8879 38.1444 31.8965 37.8857C31.9109 37.4027 31.3819 37.1813 31.0283 37.0059C30.8457 36.9168 30.6545 36.8421 30.459 36.7831ZM27.584 31.312C27.0148 31.4716 26.4887 31.7404 26.2227 32.1817C25.987 32.5741 26.4829 32.9738 26.7905 33.1592C26.8639 33.2038 26.9386 33.244 27.0148 33.2814C27.1097 33.3274 27.206 33.3691 27.3037 33.4064C27.3957 33.4424 27.4892 33.4754 27.584 33.5042V31.312Z" fill="#FFC400"/>
<path d="M29.0229 26.5194C29.0603 26.5194 29.0848 26.5223 29.1121 26.5237C29.3881 26.5496 29.4326 26.5754 29.5505 26.6214C30.0263 26.8098 30.3828 27.2654 30.4475 27.7772C30.4576 27.8577 30.4561 27.8778 30.459 27.9583V28.368C32.3234 28.6943 34.0657 29.6689 34.622 31.45C34.6939 31.6786 34.7413 31.9172 34.76 32.1572C34.7686 32.2622 34.7744 32.3686 34.7686 32.4749C34.7226 33.5559 33.173 34.2962 32.3105 33.4208C31.9684 33.0744 31.9899 32.4591 31.8174 32.1759C31.5414 31.7246 31.0441 31.4356 30.459 31.2732V33.8319C32.2688 34.1496 33.9579 35.0811 34.5731 36.7659C34.9081 37.683 34.7902 38.7439 34.2856 39.5862C33.5094 40.8786 32.0633 41.6534 30.459 41.9323V42.3304C30.4346 43.0937 29.7733 43.7608 29.0229 43.7665V26.5194ZM30.459 36.7831V38.9839C30.781 38.8819 31.0843 38.7396 31.3574 38.5556C31.6148 38.3831 31.8879 38.1444 31.8965 37.8857C31.9109 37.4027 31.3819 37.1813 31.0282 37.0059C30.8457 36.9168 30.6545 36.8421 30.459 36.7831Z" fill="#FFAB00"/>
<path fill-rule="evenodd" clip-rule="evenodd" d="M33.2552 19.2961C34.7508 19.3163 36.109 20.2611 36.1843 21.3683C36.2619 22.5132 34.9575 23.6186 33.3412 23.6791C33.303 23.68 33.2648 23.6809 33.2265 23.6817C30.43 23.6949 27.6335 23.6817 24.8382 23.6817C23.3199 23.6747 21.9354 22.7167 21.8589 21.5973C21.7825 20.462 23.0798 19.3584 24.6865 19.2987C24.7247 19.2978 24.7629 19.297 24.8012 19.2961C27.6192 19.2829 30.4372 19.2829 33.2552 19.2961Z" fill="#A65100"/>
<path d="M22.0726 18.5225C20.7789 15.6792 20.3491 12.4362 20.3692 9.31249C20.3692 9.31249 20.4382 8.63255 20.8263 8.2703C21.0448 8.06618 21.3295 7.93249 21.627 7.89511C21.7061 7.88505 21.7262 7.88648 21.8067 7.88361H36.1803C36.2104 7.88504 36.2392 7.88649 36.2694 7.88649C36.5626 7.9138 36.6403 7.94973 36.7898 8.02017C37.3288 8.27173 37.6221 8.86111 37.6163 9.49361C37.5876 12.613 37.1563 15.8014 35.9186 18.524C36.8717 19.1421 37.556 20.19 37.6135 21.3415C37.7055 23.216 36.1371 25.0287 34.1907 25.1279C34.1447 25.1293 34.0988 25.1307 34.0528 25.1322C30.6876 25.1537 27.3238 25.1322 23.9586 25.1322C22.1316 25.1207 20.4641 23.5495 20.3735 21.7167C20.3103 20.4502 21.0089 19.2183 22.0726 18.5225ZM34.6896 10.7586H23.2974C23.4613 13.2541 23.8638 15.8085 24.9879 17.9461H26.6079C26.1638 16.5532 26.0473 15.038 26.1206 13.5689C26.1206 13.5689 26.2069 12.9321 26.5663 12.59C26.8437 12.3284 27.2189 12.1904 27.6084 12.1976C27.8413 12.2105 27.9175 12.2349 28.0555 12.2852C28.6866 12.5195 28.9999 13.2081 28.9841 13.9269C28.9539 15.5527 29.0718 17.3467 30.0752 18.4924C30.0752 18.4924 30.5021 19.0904 30.413 19.661C30.2894 20.4502 29.4125 21.0339 28.6305 20.8297C28.6176 20.8269 28.6061 20.8225 28.5931 20.8197C27.0421 20.8154 25.491 20.7909 23.9399 20.8197C23.3233 20.8398 22.9668 21.8734 23.6639 22.1925C23.7545 22.2342 23.8537 22.2557 23.9543 22.2572C27.3109 22.2787 30.6689 22.3204 34.0269 22.2572C34.6508 22.237 35.0389 21.1949 34.3273 20.88C34.2367 20.8398 34.139 20.8211 34.0398 20.8197H33.3053C32.1883 20.7852 31.4193 19.2916 32.2573 18.3989C32.45 18.1948 32.7029 18.0496 32.9746 17.9835C34.1103 15.81 34.5127 13.2972 34.6867 10.8032L34.6896 10.7586ZM27.5567 28.4169V28.0072C27.5653 27.7125 27.5955 27.632 27.6573 27.4782C27.8456 27.0024 28.3013 26.6459 28.8131 26.5812C28.987 26.5596 29.0273 26.5711 29.0833 26.5726C29.3593 26.5984 29.4039 26.6243 29.5218 26.6703C29.9976 26.8586 30.3541 27.3143 30.4188 27.826C30.4288 27.9065 30.4288 27.9267 30.4303 28.0072V28.4169C32.2961 28.7432 34.0369 29.7178 34.5947 31.4989C34.6666 31.7289 34.7126 31.966 34.7327 32.2061C34.7413 32.3125 34.7456 32.4189 34.7413 32.5238C34.6939 33.6062 33.1443 34.3451 32.2818 33.4711C31.9396 33.1247 31.9626 32.508 31.7901 32.2262C31.5127 31.7734 31.0153 31.4845 30.4303 31.3221V33.8822C32.2401 34.1985 33.9306 35.13 34.5458 36.8162C34.8793 37.7333 34.7629 38.7942 34.2569 39.6351C33.4806 40.9289 32.0359 41.7037 30.4303 41.9826V42.3807C30.4058 43.1742 29.6899 43.8642 28.9036 43.8154C28.2424 43.7737 27.6501 43.2217 27.5668 42.5604C27.5567 42.4799 27.5581 42.4598 27.5567 42.3807V41.9682C27.515 41.9595 27.4748 41.9524 27.4331 41.9437C25.4651 41.5556 23.3649 40.4272 23.2485 38.0855C23.1953 37.0318 24.4301 36.0845 25.4335 36.7012C25.8475 36.9542 26.1063 37.4257 26.1192 37.9187C26.1321 38.4262 26.7646 38.7482 27.4058 38.9681C27.4546 38.9854 27.505 39.0012 27.5567 39.017V36.5086C25.6908 36.1866 23.9155 35.2191 23.3736 33.3647C22.9294 31.8467 23.8048 30.1634 25.2251 29.2851C25.9366 28.8452 26.7301 28.5635 27.5567 28.4169ZM30.4303 36.832V39.0342C30.7523 38.9307 31.057 38.7884 31.3301 38.6044C31.586 38.4319 31.8606 38.1933 31.8678 37.9345C31.8821 37.453 31.3546 37.2302 30.9995 37.0562C30.817 36.9657 30.6258 36.8924 30.4303 36.832ZM27.5567 31.3623C26.986 31.5204 26.4599 31.7892 26.194 32.232C25.9582 32.623 26.4541 33.0226 26.7617 33.208C26.8351 33.2526 26.9098 33.2929 26.986 33.3302C27.0809 33.3777 27.1772 33.4194 27.275 33.4567C27.367 33.4927 27.4618 33.5243 27.5567 33.5531V31.3623Z" fill="#263238"/>
<path d="M19.8501 25.8429C20.2123 25.8818 20.2698 25.9246 20.4178 26.0011C21.1365 26.3758 21.3794 27.3923 20.9439 28.0847C20.9108 28.1379 20.8778 28.191 20.8447 28.2442C20.8203 28.2844 20.7959 28.3246 20.7714 28.3648C18.8871 31.4779 17.5848 35.0643 17.5 38.5898C17.4584 40.2909 17.7142 42.0711 19.0581 43.2769C20.4998 44.5709 22.5379 44.8756 24.3935 45.0585C28.4799 45.4604 32.7243 45.6095 36.4011 44.5632C36.5434 44.5217 36.6842 44.4789 36.8251 44.4322C37.9879 44.0419 39.1148 43.3755 39.7558 42.2565C40.9761 40.1288 40.5679 37.3437 39.947 34.875C39.3404 32.4607 38.3487 30.1541 37.0206 28.0458C37.0206 28.0458 36.8869 27.8228 36.8366 27.6089C36.598 26.5962 37.768 25.4838 38.8345 25.9726C39.2082 26.1437 39.4497 26.5016 39.6753 26.8737C41.9578 30.6286 43.4742 34.9346 43.3635 39.2562C43.3061 41.4461 42.6377 43.7191 41.0078 45.2711C37.8413 48.2883 32.4757 48.1457 27.9854 48.1003C23.8128 48.0575 19.2665 47.9991 16.491 44.7551C14.5319 42.464 14.3939 39.015 14.8496 36.1405C15.3814 32.781 16.6534 29.5369 18.4544 26.6442C18.6513 26.3291 19.1673 25.8261 19.8501 25.8429Z" fill="#263238"/>
</g>
<defs>
<clipPath id="clip0_107_3">
<rect width="46" height="46" fill="white" transform="translate(6 5)"/>
</clipPath>
</defs>
</svg>
