<svg width="59" height="59" viewBox="0 0 59 59" fill="none" xmlns="http://www.w3.org/2000/svg">
<circle cx="29.5" cy="29.5" r="29.5" fill="#6BBFA1"/>
<path d="M26 26.6667C27.0548 26.6667 28.0859 26.3539 28.963 25.7678C29.8401 25.1818 30.5236 24.3489 30.9273 23.3743C31.331 22.3998 31.4366 21.3274 31.2308 20.2929C31.025 19.2583 30.5171 18.308 29.7712 17.5621C29.0253 16.8162 28.075 16.3083 27.0404 16.1025C26.0059 15.8967 24.9335 16.0023 23.959 16.406C22.9844 16.8096 22.1515 17.4932 21.5655 18.3703C20.9794 19.2474 20.6666 20.2785 20.6666 21.3333C20.6666 22.7478 21.2285 24.1044 22.2287 25.1046C23.2289 26.1048 24.5855 26.6667 26 26.6667ZM36.6666 29.3333C37.4578 29.3333 38.2311 29.0987 38.8889 28.6592C39.5467 28.2197 40.0594 27.595 40.3621 26.8641C40.6649 26.1332 40.7441 25.3289 40.5898 24.553C40.4354 23.7771 40.0545 23.0643 39.4951 22.5049C38.9356 21.9455 38.2229 21.5645 37.447 21.4102C36.6711 21.2559 35.8668 21.3351 35.1359 21.6378C34.405 21.9406 33.7803 22.4533 33.3407 23.1111C32.9012 23.7689 32.6666 24.5422 32.6666 25.3333C32.6666 26.3942 33.0881 27.4116 33.8382 28.1618C34.5883 28.9119 35.6058 29.3333 36.6666 29.3333ZM42 38.6667C42.3536 38.6667 42.6927 38.5262 42.9428 38.2761C43.1928 38.0261 43.3333 37.687 43.3333 37.3333C43.3322 36.0872 42.9819 34.8663 42.3221 33.8092C41.6623 32.752 40.7194 31.901 39.6004 31.3526C38.4814 30.8042 37.2311 30.5805 35.9914 30.7067C34.7517 30.8329 33.5721 31.304 32.5866 32.0667C31.2806 30.7658 29.6187 29.8808 27.8104 29.5232C26.0021 29.1657 24.1284 29.3516 22.4256 30.0575C20.7228 30.7634 19.2672 31.9578 18.2423 33.4899C17.2174 35.022 16.6691 36.8233 16.6666 38.6667C16.6666 39.0203 16.8071 39.3594 17.0572 39.6095C17.3072 39.8595 17.6463 40 18 40H34C34.3536 40 34.6927 39.8595 34.9428 39.6095C35.1928 39.3594 35.3333 39.0203 35.3333 38.6667" fill="white"/>
</svg>
