<svg width="46" height="46" viewBox="0 0 46 46" fill="none" xmlns="http://www.w3.org/2000/svg">
<g clip-path="url(#clip0_40_764)">
<path fill-rule="evenodd" clip-rule="evenodd" d="M29.0677 4.31385C29.3102 4.33833 29.3747 4.37053 29.4989 4.43364C29.9469 4.65905 30.1918 5.18714 30.187 5.75388C30.1583 9.02289 29.6697 12.3795 28.1741 15.0805C27.2185 16.8077 24.9918 17.0473 22.985 17.028C21.604 17.0151 20.1634 16.8709 18.9927 16.2178C17.9559 15.6382 17.3932 14.278 16.9548 12.9552C16.1783 10.6149 15.8522 8.10066 15.8546 5.6109C15.8546 5.6109 15.906 4.98878 16.2345 4.65776C16.4173 4.47486 16.6526 4.35508 16.8999 4.32159C16.9668 4.31257 16.9835 4.31386 17.0492 4.31128H28.9924C29.0175 4.31257 29.0426 4.31385 29.0677 4.31385Z" fill="#F57C00"/>
<path fill-rule="evenodd" clip-rule="evenodd" d="M22.9989 4.31128H28.9915C29.0166 4.31257 29.0417 4.31385 29.0668 4.31385C29.3094 4.33833 29.3739 4.37053 29.4982 4.43364C29.9464 4.65905 30.1914 5.18714 30.1866 5.75388C30.158 9.02289 29.6691 12.3795 28.1728 15.0805C27.219 16.8026 25.002 17.046 22.9989 17.028V4.31128Z" fill="#EF6C00"/>
<path fill-rule="evenodd" clip-rule="evenodd" d="M30.2076 2.83618C30.2378 2.83762 30.268 2.83906 30.2982 2.83906C30.59 2.86637 30.6676 2.90231 30.8171 2.97275C31.3562 3.22431 31.6509 3.81369 31.6451 4.44619C31.6106 8.09456 31.0227 11.8407 29.2229 14.8551C28.0758 16.7771 25.4093 17.0487 23 17.0286V16.8302C24.4088 16.5744 25.6551 16.0152 26.3479 14.8551C28.1477 11.8407 28.7356 8.09456 28.7701 4.44619C28.7759 3.81369 28.4812 3.22431 27.9421 2.97275C27.7926 2.90231 27.715 2.86637 27.4232 2.83906C27.393 2.83906 27.3628 2.83762 27.3326 2.83618H30.2076Z" fill="#E65100"/>
<path fill-rule="evenodd" clip-rule="evenodd" d="M28.9642 17.1796C30.1531 17.227 31.0558 18.2074 31.7444 19.0296C34.8335 22.7154 36.7756 27.37 37.2888 32.0088C37.6554 35.3165 37.1163 38.9318 34.0745 40.9918C31.8594 42.4911 29.085 42.8317 26.4874 42.9755C22.6881 43.1854 18.85 43.3133 15.1786 42.3717C12.9735 41.8054 10.8244 40.5734 9.69455 38.5049C8.16649 35.7075 8.5 32.1827 9.30787 29.0245C10.2437 25.3675 11.8479 21.8687 14.4484 18.9491C15.1872 18.1183 16.0339 17.2845 17.1394 17.2126C17.1811 17.2112 17.2227 17.2097 17.2644 17.2083L28.5962 17.2054C28.5962 17.2054 28.7357 17.1824 28.8809 17.1781C28.9226 17.1781 28.9226 17.1781 28.9642 17.1796Z" fill="#F57C00"/>
<path fill-rule="evenodd" clip-rule="evenodd" d="M23 17.2069L28.5962 17.2054C28.5962 17.2054 28.7356 17.1824 28.8808 17.1781C28.9225 17.1781 28.9225 17.1781 28.9642 17.1796C30.153 17.227 31.0557 18.2074 31.7443 19.0296C34.8335 22.7154 36.7756 27.37 37.2888 32.0088C37.6553 35.3165 37.1162 38.9318 34.0745 40.9918C31.8593 42.4911 29.0849 42.8317 26.4874 42.9755C25.3259 43.0387 24.1615 43.0963 23 43.1164V17.2069Z" fill="#EF6C00"/>
<path fill-rule="evenodd" clip-rule="evenodd" d="M26.358 17.2054H28.5962C28.5962 17.2054 28.7356 17.1824 28.8808 17.1781C28.9225 17.1781 28.9225 17.1781 28.9642 17.1796C30.153 17.227 31.0557 18.2074 31.7443 19.0296C34.8335 22.7154 36.7756 27.37 37.2888 32.0088C37.6553 35.3165 37.1162 38.9318 34.0745 40.9918C31.8593 42.4911 29.0849 42.8317 26.4874 42.9755C25.3259 43.0387 24.1615 43.0963 23 43.1164V43.0086C23.2056 42.9971 23.4097 42.987 23.6138 42.9755C26.2128 42.8317 28.9872 42.4911 31.2009 40.9918C34.2427 38.9318 34.7832 35.3165 34.4166 32.0088C33.9034 27.37 31.9614 22.7154 28.8722 19.0296C28.2354 18.2706 27.416 17.3751 26.358 17.2054Z" fill="#E65100"/>
<path d="M21.584 23.368V22.9583C21.5941 22.6636 21.6243 22.5831 21.6861 22.4293C21.873 21.9535 22.3301 21.597 22.8419 21.5323C23.0144 21.5108 23.0561 21.5223 23.1121 21.5237C23.3881 21.5496 23.4327 21.5754 23.5505 21.6214C24.0264 21.8097 24.3829 22.2654 24.4476 22.7772C24.4576 22.8577 24.4562 22.8778 24.459 22.9583V23.368C26.3235 23.6943 28.0657 24.6689 28.622 26.45C28.6939 26.6786 28.7414 26.9172 28.7601 27.1572C28.7687 27.2622 28.7744 27.3686 28.7687 27.4749C28.7227 28.5559 27.173 29.2962 26.3105 28.4208C25.9684 28.0744 25.99 27.4591 25.8175 27.1759C25.5415 26.7246 25.0441 26.4356 24.459 26.2732V28.8319C26.2689 29.1496 27.9579 30.0811 28.5732 31.7659C28.9081 32.683 28.7902 33.7439 28.2857 34.5862C27.5094 35.8786 26.0633 36.6534 24.459 36.9322V37.3304C24.4346 38.1239 23.7187 38.8139 22.931 38.7651C22.2712 38.7234 21.6789 38.1714 21.5955 37.5101C21.5855 37.4311 21.5869 37.4095 21.584 37.3304V36.9179C21.5438 36.9107 21.5021 36.9021 21.4619 36.8949C19.4939 36.5067 17.3937 35.3769 17.2773 33.0352C17.2241 31.9829 18.4589 31.0342 19.4623 31.6509C19.8763 31.9053 20.1351 32.3754 20.148 32.8684C20.1609 33.3759 20.7934 33.6993 21.4331 33.9178C21.4834 33.9351 21.5337 33.9509 21.584 33.9667V31.4583C19.7196 31.1377 17.9443 30.1688 17.4024 28.3159C16.9582 26.7964 17.8336 25.1146 19.2539 24.2362C19.9654 23.7949 20.7589 23.5146 21.584 23.368ZM24.459 31.7831V33.9839C24.781 33.8819 25.0844 33.7396 25.3575 33.5556C25.6148 33.3831 25.8879 33.1444 25.8965 32.8857C25.9109 32.4027 25.3819 32.1813 25.0283 32.0059C24.8457 31.9168 24.6545 31.8421 24.459 31.7831ZM21.584 26.312C21.0148 26.4716 20.4887 26.7404 20.2227 27.1817C19.987 27.5741 20.4829 27.9738 20.7905 28.1592C20.8639 28.2038 20.9386 28.244 21.0148 28.2814C21.1097 28.3274 21.206 28.3691 21.3037 28.4064C21.3957 28.4424 21.4892 28.4754 21.584 28.5042V26.312Z" fill="#FFC400"/>
<path d="M23.0229 21.5194C23.0603 21.5194 23.0848 21.5223 23.1121 21.5237C23.3881 21.5496 23.4326 21.5754 23.5505 21.6214C24.0263 21.8098 24.3828 22.2654 24.4475 22.7772C24.4576 22.8577 24.4561 22.8778 24.459 22.9583V23.368C26.3234 23.6943 28.0657 24.6689 28.622 26.45C28.6939 26.6786 28.7413 26.9172 28.76 27.1572C28.7686 27.2622 28.7744 27.3686 28.7686 27.4749C28.7226 28.5559 27.173 29.2962 26.3105 28.4208C25.9684 28.0744 25.9899 27.4591 25.8174 27.1759C25.5414 26.7246 25.0441 26.4356 24.459 26.2732V28.8319C26.2688 29.1496 27.9579 30.0811 28.5731 31.7659C28.9081 32.683 28.7902 33.7439 28.2856 34.5862C27.5094 35.8786 26.0633 36.6534 24.459 36.9323V37.3304C24.4346 38.0937 23.7733 38.7608 23.0229 38.7665V21.5194ZM24.459 31.7831V33.9839C24.781 33.8819 25.0843 33.7396 25.3574 33.5556C25.6148 33.3831 25.8879 33.1444 25.8965 32.8857C25.9109 32.4027 25.3819 32.1813 25.0282 32.0059C24.8457 31.9168 24.6545 31.8421 24.459 31.7831Z" fill="#FFAB00"/>
<path fill-rule="evenodd" clip-rule="evenodd" d="M27.2552 14.2961C28.7508 14.3163 30.109 15.2611 30.1843 16.3683C30.2619 17.5132 28.9575 18.6186 27.3412 18.6791C27.303 18.68 27.2648 18.6809 27.2265 18.6817C24.43 18.6949 21.6335 18.6817 18.8382 18.6817C17.3199 18.6747 15.9354 17.7167 15.8589 16.5973C15.7825 15.462 17.0798 14.3584 18.6865 14.2987C18.7247 14.2978 18.7629 14.297 18.8012 14.2961C21.6192 14.2829 24.4372 14.2829 27.2552 14.2961Z" fill="#A65100"/>
<path d="M16.0726 13.5225C14.7789 10.6792 14.3491 7.43617 14.3692 4.31249C14.3692 4.31249 14.4382 3.63255 14.8263 3.2703C15.0448 3.06618 15.3295 2.93249 15.627 2.89511C15.7061 2.88505 15.7262 2.88648 15.8067 2.88361H30.1803C30.2104 2.88504 30.2392 2.88649 30.2694 2.88649C30.5626 2.9138 30.6403 2.94973 30.7898 3.02017C31.3288 3.27173 31.6221 3.86111 31.6163 4.49361C31.5876 7.61299 31.1563 10.8014 29.9186 13.524C30.8717 14.1421 31.556 15.19 31.6135 16.3415C31.7055 18.216 30.1371 20.0287 28.1907 20.1279C28.1447 20.1293 28.0988 20.1307 28.0528 20.1322C24.6876 20.1537 21.3238 20.1322 17.9586 20.1322C16.1316 20.1207 14.4641 18.5495 14.3735 16.7167C14.3103 15.4502 15.0089 14.2183 16.0726 13.5225ZM28.6896 5.75861H17.2974C17.4613 8.25411 17.8638 10.8085 18.9879 12.9461H20.6079C20.1638 11.5532 20.0473 10.038 20.1206 8.56892C20.1206 8.56892 20.2069 7.93211 20.5663 7.58998C20.8437 7.32836 21.2189 7.19037 21.6084 7.19755C21.8413 7.21049 21.9175 7.23492 22.0555 7.28524C22.6866 7.51955 22.9999 8.20811 22.9841 8.92686C22.9539 10.5527 23.0718 12.3467 24.0752 13.4924C24.0752 13.4924 24.5021 14.0904 24.413 14.661C24.2894 15.4502 23.4125 16.0339 22.6305 15.8297C22.6176 15.8269 22.6061 15.8225 22.5931 15.8197C21.0421 15.8154 19.491 15.7909 17.9399 15.8197C17.3233 15.8398 16.9668 16.8734 17.6639 17.1925C17.7545 17.2342 17.8537 17.2557 17.9543 17.2572C21.3109 17.2787 24.6689 17.3204 28.0269 17.2572C28.6508 17.237 29.0389 16.1949 28.3273 15.88C28.2367 15.8398 28.139 15.8211 28.0398 15.8197H27.3053C26.1883 15.7852 25.4193 14.2916 26.2573 13.3989C26.45 13.1948 26.7029 13.0496 26.9746 12.9835C28.1103 10.81 28.5127 8.29724 28.6867 5.80318L28.6896 5.75861ZM21.5567 23.4169V23.0072C21.5653 22.7125 21.5955 22.632 21.6573 22.4782C21.8456 22.0024 22.3013 21.6459 22.8131 21.5812C22.987 21.5596 23.0273 21.5711 23.0833 21.5726C23.3593 21.5984 23.4039 21.6243 23.5218 21.6703C23.9976 21.8586 24.3541 22.3143 24.4188 22.826C24.4288 22.9065 24.4288 22.9267 24.4303 23.0072V23.4169C26.2961 23.7432 28.0369 24.7178 28.5947 26.4989C28.6666 26.7289 28.7126 26.966 28.7327 27.2061C28.7413 27.3125 28.7456 27.4189 28.7413 27.5238C28.6939 28.6062 27.1443 29.3451 26.2818 28.4711C25.9396 28.1247 25.9626 27.508 25.7901 27.2262C25.5127 26.7734 25.0153 26.4845 24.4303 26.3221V28.8822C26.2401 29.1985 27.9306 30.13 28.5458 31.8162C28.8793 32.7333 28.7629 33.7942 28.2569 34.6351C27.4806 35.9289 26.0359 36.7037 24.4303 36.9826V37.3807C24.4058 38.1742 23.6899 38.8642 22.9036 38.8154C22.2424 38.7737 21.6501 38.2217 21.5668 37.5604C21.5567 37.4799 21.5581 37.4598 21.5567 37.3807V36.9682C21.515 36.9595 21.4748 36.9524 21.4331 36.9437C19.4651 36.5556 17.3649 35.4272 17.2485 33.0855C17.1953 32.0318 18.4301 31.0845 19.4335 31.7012C19.8475 31.9542 20.1063 32.4257 20.1192 32.9187C20.1321 33.4262 20.7646 33.7482 21.4058 33.9681C21.4546 33.9854 21.505 34.0012 21.5567 34.017V31.5086C19.6908 31.1866 17.9155 30.2191 17.3736 28.3647C16.9294 26.8467 17.8048 25.1634 19.2251 24.2851C19.9366 23.8452 20.7301 23.5635 21.5567 23.4169ZM24.4303 31.832V34.0342C24.7523 33.9307 25.057 33.7884 25.3301 33.6044C25.586 33.4319 25.8606 33.1933 25.8678 32.9345C25.8821 32.453 25.3546 32.2302 24.9995 32.0562C24.817 31.9657 24.6258 31.8924 24.4303 31.832ZM21.5567 26.3623C20.986 26.5204 20.4599 26.7892 20.194 27.232C19.9582 27.623 20.4541 28.0226 20.7617 28.208C20.8351 28.2526 20.9098 28.2929 20.986 28.3302C21.0809 28.3777 21.1772 28.4194 21.275 28.4567C21.367 28.4927 21.4618 28.5243 21.5567 28.5531V26.3623Z" fill="#263238"/>
<path d="M13.8501 20.8429C14.2123 20.8818 14.2698 20.9246 14.4178 21.0011C15.1365 21.3758 15.3794 22.3923 14.9439 23.0847C14.9108 23.1379 14.8778 23.191 14.8447 23.2442C14.8203 23.2844 14.7959 23.3246 14.7714 23.3648C12.8871 26.4779 11.5848 30.0643 11.5 33.5898C11.4584 35.2909 11.7142 37.0711 13.0581 38.2769C14.4998 39.5709 16.5379 39.8756 18.3935 40.0585C22.4799 40.4604 26.7243 40.6095 30.4011 39.5632C30.5434 39.5217 30.6842 39.4789 30.8251 39.4322C31.9879 39.0419 33.1148 38.3755 33.7558 37.2565C34.9761 35.1288 34.5679 32.3437 33.947 29.875C33.3404 27.4607 32.3487 25.1541 31.0206 23.0458C31.0206 23.0458 30.8869 22.8228 30.8366 22.6089C30.598 21.5962 31.768 20.4838 32.8345 20.9726C33.2082 21.1437 33.4497 21.5016 33.6753 21.8737C35.9578 25.6286 37.4742 29.9346 37.3635 34.2562C37.3061 36.4461 36.6377 38.7191 35.0078 40.2711C31.8413 43.2883 26.4757 43.1457 21.9854 43.1003C17.8128 43.0575 13.2665 42.9991 10.491 39.7551C8.53191 37.464 8.39392 34.015 8.84956 31.1405C9.38138 27.781 10.6534 24.5369 12.4544 21.6442C12.6513 21.3291 13.1673 20.8261 13.8501 20.8429Z" fill="#263238"/>
</g>
<defs>
<clipPath id="clip0_40_764">
<rect width="46" height="46" fill="white"/>
</clipPath>
</defs>
</svg>
