<svg width="624" height="577" viewBox="0 0 624 577" fill="none" xmlns="http://www.w3.org/2000/svg">
<path d="M393.074 477.374C363.318 456.592 356.577 418.014 357.752 383.327C357.944 377.549 357.309 371.424 360.063 366.359C362.817 361.294 369.25 357.808 374.431 360.234C378.726 362.257 380.594 367.264 383.002 371.405C386.214 376.921 390.921 381.414 396.58 384.367C400.258 386.293 404.823 387.449 408.463 385.446C413.471 382.692 414.049 375.816 414.01 370.038C414.01 359.291 413.946 348.556 413.818 337.835C413.471 332.078 414.057 326.303 415.551 320.732C417.342 315.262 421.329 310.197 426.779 308.656C432.23 307.115 439.029 310.293 440.261 315.917C440.474 318.299 440.532 320.692 440.435 323.082C440.589 325.489 441.706 328.128 443.959 328.86C446.213 329.592 448.563 327.916 450.296 326.221C456.228 320.443 460.273 312.913 464.028 305.478C467.784 298.044 471.463 290.398 476.855 284.061C482.248 277.725 489.702 272.698 498.041 272.216C506.381 271.735 515.067 276.858 517.147 284.947C519.227 293.036 514.509 301.299 509.443 307.866C501.8 317.615 492.79 326.21 482.691 333.386C480.72 334.462 479.147 336.143 478.204 338.182C476.952 342.034 480.592 345.886 484.386 347.099C488.681 348.524 493.342 348.081 497.868 348.621C502.394 349.16 507.209 351.124 508.923 355.362C511.273 361.255 506.343 367.418 501.508 371.463C491.801 379.552 480.779 385.917 468.92 390.28C464.683 391.821 460.234 393.188 456.806 396.154C453.378 399.12 451.336 404.301 453.397 408.365C455.458 412.429 460.754 413.719 465.203 412.891C469.652 412.063 473.601 409.675 477.838 408.076C485.754 405.091 495.961 405.63 500.95 412.468C502.495 414.823 503.473 417.504 503.808 420.301C504.142 423.099 503.823 425.935 502.876 428.588C500.948 433.868 497.981 438.708 494.151 442.821C481.536 457.893 465.146 469.345 446.656 476.006C428.301 482.362 411.294 484.095 393.055 477.412" fill="#0FA1F4"/>
<path d="M508.673 276.973C508.673 276.973 508.5 277.166 508.114 277.513L506.4 279.034C504.898 280.382 502.683 282.347 499.89 284.947C491.972 292.299 484.62 300.237 477.896 308.695C473.601 314.03 469.151 320.077 464.414 326.645C459.676 333.213 454.784 340.3 449.93 347.831C444.756 355.772 440.017 363.989 435.735 372.445C433.501 376.856 431.537 381.459 429.514 386.158L423.544 400.507C415.674 418.581 408.819 437.08 403.013 455.918C398.335 471.331 395.111 487.149 393.383 503.163C392.262 513.97 392.082 524.854 392.843 535.693C393.151 539.545 393.44 542.492 393.71 544.495C393.826 545.458 393.903 546.228 393.98 546.787V547.576C393.897 547.326 393.839 547.068 393.806 546.806C393.71 546.248 393.594 545.496 393.44 544.533C393.094 542.607 392.728 539.564 392.381 535.712C391.452 524.854 391.516 513.933 392.574 503.086C394.195 487.003 397.349 471.112 401.992 455.629C407.75 436.738 414.585 418.192 422.465 400.083L428.59 385.792C430.612 381.112 432.596 376.471 434.849 372.041C439.161 363.559 443.938 355.322 449.16 347.369C454.09 339.665 459.059 332.693 463.739 326.183C468.42 319.673 472.946 313.587 477.221 308.271C484.014 299.836 491.466 291.953 499.505 284.697C502.356 282.135 504.628 280.209 506.169 278.919L507.96 277.474C508.18 277.283 508.419 277.115 508.673 276.973Z" fill="#263238"/>
<path d="M435.1 372.002C434.828 371.209 434.641 370.389 434.541 369.556C434.233 367.958 433.886 365.704 433.482 362.777C432.654 356.999 431.806 349.083 430.901 340.32C429.996 331.556 428.975 323.621 428.128 317.901C427.685 315.05 427.3 312.759 427.03 311.16C426.819 310.342 426.71 309.501 426.703 308.656C427.034 309.428 427.273 310.236 427.415 311.064C427.839 312.643 428.32 314.916 428.86 317.785C429.957 323.563 431.036 331.421 431.941 340.204C432.846 348.987 433.617 356.691 434.214 362.68C434.503 365.377 434.753 367.669 434.946 369.499C435.095 370.324 435.147 371.165 435.1 372.002Z" fill="#263238"/>
<path d="M509.212 358.174C508.275 358.378 507.321 358.494 506.362 358.52C504.436 358.694 501.701 358.925 498.311 359.31C491.532 360.042 482.21 361.39 471.983 363.316C461.756 365.242 452.569 367.418 445.962 369.094C442.669 369.941 440.011 370.712 438.259 371.232C437.323 371.564 436.354 371.797 435.37 371.925C436.26 371.478 437.188 371.11 438.143 370.827C439.953 370.192 442.573 369.306 445.847 368.362C452.415 366.436 461.602 364.144 471.867 362.18C480.563 360.517 489.338 359.296 498.157 358.52C501.566 358.231 504.32 358.116 506.246 358.077C507.236 358.01 508.229 358.042 509.212 358.174Z" fill="#263238"/>
<path d="M402.936 454.281C402.73 454.002 402.562 453.698 402.435 453.376L401.164 450.699C400.066 448.368 398.583 444.921 396.811 440.703C393.229 432.228 388.664 420.364 383.81 407.19C378.957 394.016 374.489 382.152 371.099 373.582C369.443 369.422 368.075 366.012 367.054 363.47L365.976 360.716C365.826 360.398 365.723 360.061 365.668 359.714C365.873 359.993 366.041 360.298 366.168 360.62L367.439 363.297C368.518 365.627 370.02 369.075 371.792 373.293C375.375 381.767 379.939 393.631 384.793 406.805C389.646 419.979 394.115 431.843 397.504 440.414C399.161 444.574 400.528 447.983 401.53 450.525C401.973 451.623 402.339 452.451 402.627 453.279C402.777 453.597 402.881 453.934 402.936 454.281Z" fill="#263238"/>
<path d="M607.117 360.487C603.239 353.9 596.993 348.709 589.778 346.171C586.669 345.087 582.933 344.574 580.395 346.656C577.857 348.738 578.741 354.071 582.021 353.985C571.897 346.97 559.691 343.006 547.371 342.692C544.291 342.606 540.783 342.949 538.844 345.344C536.876 347.74 538.53 352.474 541.553 351.932C532.256 345.971 519.993 347.797 509.584 351.504C506.561 352.588 503.566 353.786 500.572 354.983C497.292 356.295 498.262 361.172 501.798 361.143L607.117 360.487ZM342.551 326.493C338.672 327.434 334.737 324.212 335.564 321.503C336.391 318.793 340.155 316.94 343.948 315.827C352.532 313.318 362.713 313.346 371.269 315.913C369.273 314.886 369.444 312.719 371.012 311.436C372.609 310.152 375.147 309.582 377.6 309.268C389.293 307.785 402.097 311.207 408.97 317.71C406.717 316.113 407.944 313.261 410.653 312.063C413.362 310.865 416.956 310.865 420.178 311.264C434.038 312.919 445.788 317.966 448.44 327.206L342.551 326.493Z" fill="#CCE9FF"/>
<path d="M336.248 542.664C347.399 521.218 359.662 500.342 372.98 480.18C378.341 472.052 384.387 463.61 393.399 459.874C401.299 456.595 410.539 457.564 418.324 461.158C426.081 464.751 432.527 470.769 437.86 477.47C442.451 483.203 447.356 490.104 454.686 490.703C462.5 491.359 468.688 484.514 473.508 478.297C489.336 457.907 505.163 437.487 520.991 417.097C526.238 410.338 532.712 402.951 541.239 402.98C548.882 403.009 555.071 409.054 559.833 415.043C587.781 450.093 598.676 495.351 608.8 538.985L336.248 542.664Z" fill="#F7F7F7"/>
<path d="M594.74 502.025C606.017 502.025 615.159 492.883 615.159 481.606C615.159 470.328 606.017 461.186 594.74 461.186C583.463 461.186 574.321 470.328 574.321 481.606C574.321 492.883 583.463 502.025 594.74 502.025Z" fill="#CCEEFF"/>
<path d="M594.626 537.958C594.312 537.901 594.113 537.616 594.113 537.302V487.88C594.113 487.537 594.369 487.224 594.711 487.224C595.082 487.195 595.367 487.48 595.367 487.851V537.359C595.367 537.73 595.025 538.044 594.626 537.958Z" fill="#B6EAFF"/>
<path d="M594.74 491.986C594.569 491.986 594.426 491.929 594.284 491.815C594.027 491.559 594.027 491.159 594.284 490.931L599.873 485.341C600.13 485.085 600.529 485.085 600.757 485.341C601.014 485.598 601.014 485.997 600.757 486.226L595.196 491.815C595.054 491.929 594.911 491.986 594.74 491.986ZM594.74 497.177C594.569 497.177 594.426 497.12 594.284 497.006C594.027 496.749 594.027 496.35 594.284 496.122L599.873 490.532C600.13 490.275 600.529 490.275 600.757 490.532C601.014 490.789 601.014 491.188 600.757 491.416L595.196 497.006C595.054 497.12 594.911 497.177 594.74 497.177Z" fill="#B6EAFF"/>
<path d="M360.346 504.477C377.813 504.477 391.973 490.317 391.973 472.85C391.973 455.383 377.813 441.223 360.346 441.223C342.879 441.223 328.719 455.383 328.719 472.85C328.719 490.317 342.879 504.477 360.346 504.477Z" fill="#B0E1FF"/>
<path d="M360.346 535.334C359.947 535.334 359.633 535.021 359.633 534.621V472.85C359.633 472.451 359.947 472.137 360.346 472.137C360.746 472.137 361.059 472.451 361.059 472.85V534.593C361.088 534.992 360.746 535.334 360.346 535.334Z" fill="#CCEEFF"/>
<path d="M360.346 489.933C360.175 489.933 359.976 489.876 359.833 489.733L350.992 480.893C350.707 480.607 350.707 480.151 350.992 479.866C351.277 479.581 351.734 479.581 352.019 479.866L360.86 488.735C361.145 489.02 361.145 489.477 360.86 489.762C360.717 489.876 360.546 489.933 360.346 489.933ZM360.346 498.175C360.175 498.175 359.976 498.118 359.833 497.975L350.992 489.134C350.707 488.849 350.707 488.393 350.992 488.108C351.277 487.823 351.734 487.823 352.019 488.108L360.86 496.949C361.145 497.234 361.145 497.69 360.86 497.975C360.717 498.089 360.546 498.175 360.346 498.175Z" fill="#CCEEFF"/>
<path d="M341.524 531.969H603.524C607.659 531.969 610.996 535.306 610.996 539.441V548.795C610.996 552.93 607.659 556.267 603.524 556.267H341.524C337.389 556.267 334.052 552.93 334.052 548.795V539.441C334.052 535.334 337.389 531.969 341.524 531.969Z" fill="#F2F2F2"/>
<path d="M519.109 406.146C543.144 406.146 562.628 386.661 562.628 362.626C562.628 338.591 543.144 319.107 519.109 319.107C495.074 319.107 475.59 338.591 475.59 362.626C475.59 386.661 495.074 406.146 519.109 406.146Z" stroke="#FFBE55" stroke-miterlimit="10"/>
<path d="M512.321 412.933C521.305 417.325 518.681 425.738 518.681 425.738C518.681 425.738 513.662 432.981 504.65 428.59C495.667 424.198 486.113 409.824 486.113 409.824C486.113 409.824 503.338 408.541 512.321 412.933Z" fill="#2A94F4"/>
<path d="M512.321 412.933C521.305 417.325 518.681 425.738 518.681 425.738L486.113 409.824C486.113 409.824 503.338 408.541 512.321 412.933Z" fill="#CCE9FF"/>
<path d="M526.638 460.017C517.654 464.409 520.278 472.822 520.278 472.822C520.278 472.822 525.297 480.066 534.309 475.674C543.293 471.282 552.846 456.909 552.846 456.909C552.846 456.909 535.65 455.625 526.638 460.017Z" fill="#2A94F4"/>
<path d="M526.638 460.017C517.654 464.409 520.278 472.822 520.278 472.822L552.846 456.909C552.846 456.909 535.65 455.625 526.638 460.017ZM547.428 534.878C535.992 549.166 518.681 542.664 518.681 542.664C518.681 542.664 508.529 527.207 519.964 512.89C531.4 498.574 563.256 486.91 563.256 486.91C563.256 486.91 558.864 520.562 547.428 534.878Z" fill="#CCE9FF"/>
<path d="M547.428 534.878C535.992 549.166 518.681 542.664 518.681 542.664L563.256 486.91C563.256 486.91 558.864 520.562 547.428 534.878Z" fill="#2A94F4"/>
<path d="M490.99 534.878C502.426 549.166 519.736 542.664 519.736 542.664C519.736 542.664 529.889 527.207 518.453 512.89C507.017 498.603 475.162 486.91 475.162 486.91C475.162 486.91 479.554 520.562 490.99 534.878Z" fill="#CCE9FF"/>
<path d="M490.99 534.878C502.426 549.166 519.736 542.664 519.736 542.664L475.162 486.91C475.162 486.91 479.554 520.562 490.99 534.878Z" fill="#2A94F4"/>
<path d="M462.243 422.43L454.058 425.053L452.86 424.483L450.55 422.202L450.779 418.466L455.313 418.352L462.243 422.43Z" fill="#FCD2B1"/>
<path d="M434.979 374.519C434.979 374.519 432.184 406.801 455.284 418.351C454.343 419.464 450.465 421.232 450.465 421.232C450.465 421.232 427.85 407.514 428.648 392.286C429.447 377.057 434.979 374.519 434.979 374.519Z" fill="#1D87D6"/>
<path d="M391.203 521.703C391.203 521.703 394.226 535.677 396.451 541.979C396.707 542.721 395.766 543.32 395.224 542.778C391.489 539.099 386.298 531.656 384.587 529.944C382.448 527.806 379.169 523.813 379.169 523.813L387.011 516.911L392.173 519.507L391.203 521.703Z" fill="#0B4870"/>
<path d="M419.266 531.969C419.266 531.969 431.728 538.928 437.945 541.466C438.687 541.78 438.516 542.863 437.717 542.92C432.498 543.291 423.458 542.264 421.062 542.407C418.068 542.607 412.877 542.407 412.877 542.407V531.969L418.239 529.802L419.266 531.969Z" fill="#083751"/>
<path d="M431.899 411.108C431.899 411.108 430.701 473.478 430.017 474.875C429.333 476.244 419.266 531.998 419.266 531.998H412.877C412.877 531.998 414.018 473.734 416.528 471.567C416.528 466.434 414.788 411.621 419.665 407.714C426.794 407.286 431.899 411.108 431.899 411.108Z" fill="#083751"/>
<path d="M410.282 405.09C401.071 411.878 399.217 443.59 408.6 468.088C402.468 479.096 384.131 522.758 384.131 522.758L389.549 526.009C389.549 526.009 426.937 474.59 425.511 469.286C424.085 463.981 426.794 407.258 426.794 407.258L410.282 405.09Z" fill="#0B4870"/>
<path d="M436.719 367.36C436.919 368.13 437.175 368.9 437.489 369.642C439.485 374.376 442.223 384.158 442.023 385.783C441.795 387.551 435.55 393.569 433.896 398.16C432.241 402.752 431.956 411.108 431.956 411.108L410.339 405.09C410.339 405.09 416.357 390.261 416.585 383.559C416.813 376.857 419.123 362.997 427.65 361.6C434.152 360.516 436.149 365.193 436.719 367.36Z" fill="#2A94F4"/>
<path d="M443.307 339.07C443.706 338.072 443.563 336.931 442.936 336.047C439.685 331.627 433.839 329.146 428.42 330.115C422.403 331.199 417.355 336.389 416.442 342.435C416.1 344.774 416.3 347.169 415.815 349.479C415.244 352.189 413.676 354.698 411.48 356.381C408.742 358.491 405.206 359.29 402.154 360.944C399.074 362.626 396.536 365.136 394.369 367.902C392.201 370.669 390.319 373.777 389.72 377.256C389.121 380.736 389.977 384.586 392.572 386.953C394.226 388.464 396.365 389.234 398.476 389.947C402.696 391.373 407.117 392.656 411.537 392.171C415.957 391.687 420.435 389.063 421.804 384.814C423.714 378.825 419.009 372.522 419.864 366.305C420.463 362.084 423.543 358.605 426.966 356.067C430.388 353.529 434.266 351.59 437.517 348.852C439.941 346.827 442.251 341.637 443.307 339.07Z" fill="#0B4870"/>
<path d="M437.46 356.98C436.377 359.204 435.379 365.05 436.32 367.531C437.175 369.984 436.861 370.383 436.861 370.383L427.365 362.598L429.561 351.903L437.46 356.98Z" fill="#FCD2B1"/>
<path d="M445.189 347.996C445.189 353.5 443.763 359.119 439.2 359.119C434.637 359.119 428.648 353.5 428.648 347.996C428.648 342.492 432.356 338.015 436.919 338.015C441.481 338.015 445.189 342.492 445.189 347.996Z" fill="#FFE3CA"/>
<path d="M444.704 337.017C446.33 336.874 447.442 338.614 446.643 340.011C445.075 342.834 442.28 345.658 435.778 344.859C432.812 344.489 428.078 344.859 427.793 346.856L425.511 341.437C425.511 341.437 426.081 338.015 426.652 338.015H432.869L444.704 337.017Z" fill="#0B4870"/>
<path d="M432.356 344.289C431.5 346 431.044 349.051 429.903 349.622C428.477 348.795 426.709 344.489 426.823 344.517C426.937 344.546 428.363 343.69 428.648 343.69C428.933 343.69 432.356 344.289 432.356 344.289Z" fill="#0B4870"/>
<path d="M430.216 352.359C431.021 351.997 431.202 350.656 430.621 349.363C430.04 348.07 428.917 347.315 428.112 347.676C427.308 348.038 427.127 349.379 427.708 350.672C428.289 351.965 429.412 352.72 430.216 352.359Z" fill="#FFE3CA"/>
<path d="M429.475 354.156C430.294 354.156 430.958 353.492 430.958 352.673C430.958 351.854 430.294 351.19 429.475 351.19C428.656 351.19 427.992 351.854 427.992 352.673C427.992 353.492 428.656 354.156 429.475 354.156Z" fill="#FFBE55"/>
<path d="M452.832 455.169L435.122 439.512C434.494 438.97 434.437 438.001 434.979 437.373L445.959 423.827C446.501 423.2 447.47 423.143 448.098 423.684L466.92 440.311C467.547 440.853 467.604 441.822 467.063 442.45L454.971 455.026C454.4 455.654 453.459 455.711 452.832 455.169Z" fill="#2A94F4"/>
<path d="M470.257 460.217L454.058 452.716L458.25 447.868L471.597 456.737L471.797 456.88L470.257 460.217ZM463.754 424.597C465.751 426.308 466.407 429.474 465.58 433.523L464.097 440.853L447.584 426.565L454.885 424.027C458.65 422.686 461.787 422.886 463.754 424.597ZM464.696 423.513C462.414 421.546 458.821 421.118 454.4 422.658L444.79 426.023L465.038 443.505L467.006 433.78C467.947 429.074 467.006 425.51 464.696 423.513Z" fill="#2A94F4"/>
<path d="M470.257 460.217C469.23 458.306 470.285 457.279 471.597 456.737L471.797 456.88L470.257 460.217Z" fill="#2286D1"/>
<path d="M422.773 369.385C422.374 382.333 427.621 415.528 437.46 428.618C439.143 427.734 440.968 426.736 440.968 426.736C440.968 426.736 428.42 397.875 432.441 373.634C432.869 370.64 432.441 368.501 431.529 367.018C429.133 362.997 422.916 364.737 422.773 369.385Z" fill="#49B0FC"/>
<path d="M437.46 428.647C437.46 428.647 440.284 434.493 440.968 435.12C441.624 435.748 446.472 438.343 447.841 438.856C449.21 439.341 445.987 436.404 445.987 436.404C445.987 436.404 448.497 438.001 449.666 438.628C449.837 438.714 449.98 438.514 449.866 438.371C448.982 437.316 446.814 435.605 446.814 435.605C446.814 435.605 450.208 437.63 451.72 438.429C451.891 438.514 452.033 438.314 451.919 438.172C450.836 437.145 448.383 435.234 447.955 435.006C449.752 435.776 451.035 436.518 451.834 436.889C451.948 436.946 452.033 436.803 451.948 436.717C450.379 435.291 443.706 430.557 443.364 430.472C441.995 430.158 440.711 426.907 440.711 426.907L437.46 428.647Z" fill="#FCD2B1"/>
<path d="M454.058 425.053L452.86 424.483L452.718 424.283C452.718 424.283 455.94 421.004 456.767 420.633C457.309 420.405 459.591 421.289 461.045 421.888C461.473 422.059 461.444 422.686 460.988 422.829L454.058 425.053Z" fill="#FFE4D2"/>
<path d="M518.282 386.268H519.936V543.006H518.282V386.268Z" fill="#2A94F4"/>
<path d="M488.252 323.014C484.744 323.014 481.921 325.866 481.921 329.345C481.921 325.837 479.069 323.014 475.59 323.014C479.097 323.014 481.921 320.162 481.921 316.683C481.892 320.162 484.744 323.014 488.252 323.014Z" fill="#FFBE55"/>
<path d="M491.275 323.014C486.084 323.014 481.892 327.206 481.892 332.397C481.892 327.206 477.7 323.014 472.51 323.014C477.7 323.014 481.892 318.822 481.892 313.631C481.892 318.822 486.113 323.014 491.275 323.014Z" stroke="#FFBE55" stroke-miterlimit="10"/>
<path d="M571.269 374.519C569.244 374.519 567.59 376.173 567.59 378.169C567.59 376.144 565.936 374.519 563.94 374.519C565.965 374.519 567.59 372.864 567.59 370.868C567.59 372.864 569.244 374.519 571.269 374.519Z" fill="#FFBE55"/>
<path d="M573.009 374.519C570.014 374.519 567.59 376.943 567.59 379.937C567.59 376.943 565.166 374.519 562.172 374.519C565.166 374.519 567.59 372.094 567.59 369.1C567.59 372.094 570.014 374.519 573.009 374.519Z" stroke="#FFBE55" stroke-width="0.75" stroke-miterlimit="10"/>
<path d="M473.993 458.477L513.605 477.1M471.797 462.127L497.463 511.122M479.839 466.919L513.605 511.122M487.653 470.141L514.517 490.446" stroke="#CCE9FF" stroke-miterlimit="10" stroke-dasharray="12 12"/>
<path d="M512.721 391.573H525.354V397.875C525.354 401.354 522.531 404.178 519.052 404.178C515.573 404.178 512.749 401.354 512.749 397.875V391.573H512.721Z" fill="#0E538C"/>
<path d="M519.109 398.046C538.671 398.046 554.529 382.188 554.529 362.626C554.529 343.064 538.671 327.206 519.109 327.206C499.547 327.206 483.689 343.064 483.689 362.626C483.689 382.188 499.547 398.046 519.109 398.046Z" fill="#FFBE55"/>
<path d="M519.109 389.206C533.788 389.206 545.688 377.306 545.688 362.626C545.688 347.947 533.788 336.047 519.109 336.047C504.43 336.047 492.53 347.947 492.53 362.626C492.53 377.306 504.43 389.206 519.109 389.206Z" stroke="#F7F7F7" stroke-miterlimit="10"/>
<path d="M520.421 351.361C522.816 351.818 524.242 353.614 524.242 356.466V356.923L520.934 357.236V356.723C520.934 355.126 520.364 354.384 519.109 354.384C518.082 354.384 517.369 355.012 517.369 356.295V356.723C517.369 357.978 518.054 359.033 520.278 361.058C523.33 363.881 524.385 365.706 524.385 368.159V368.701C524.385 371.553 522.845 373.292 520.421 373.72V376.087H517.711V373.72C515.316 373.207 513.804 371.41 513.804 368.615V367.332L517.113 367.018V368.387C517.113 369.984 517.769 370.726 519.109 370.726C520.107 370.726 520.991 370.098 520.991 368.815V368.33C520.991 367.075 520.307 366.02 518.082 363.995C515.031 361.172 513.976 359.347 513.976 356.894V356.409C513.976 353.586 515.373 351.846 517.74 351.39V349.365H520.449V351.361H520.421Z" fill="#F7F7F7"/>
<path d="M501.316 422.56C501.007 422.737 500.677 422.873 500.333 422.964L497.483 423.927L486.948 427.336C478.05 430.225 465.762 434.347 452.28 438.892C438.798 443.438 426.452 447.482 417.496 450.179C413.028 451.546 409.388 452.586 406.865 453.28L403.956 454.031C403.618 454.138 403.27 454.209 402.916 454.243C403.225 454.066 403.555 453.929 403.899 453.838L406.749 452.875L417.284 449.466C426.182 446.577 438.47 442.455 451.952 437.91C465.434 433.365 477.761 429.32 486.717 426.624C491.204 425.256 494.825 424.216 497.367 423.523L500.276 422.772C500.614 422.664 500.963 422.593 501.316 422.56Z" fill="#263238"/>
<path d="M359.774 567.145L167.386 566.259C156.275 566.197 145.644 561.729 137.825 553.835C130.007 545.941 125.642 535.267 125.688 524.156L127.729 41.8666C127.752 36.3622 128.859 30.9162 130.988 25.84C133.117 20.7638 136.225 16.1569 140.135 12.2826C144.045 8.40825 148.68 5.34253 153.776 3.26065C158.871 1.17878 164.327 0.121578 169.832 0.149463L362.201 1.03542C373.311 1.09148 383.945 5.55489 391.767 13.4454C399.588 21.3358 403.959 32.0082 403.918 43.1185L401.876 525.389C401.854 530.895 400.746 536.343 398.618 541.421C396.49 546.5 393.383 551.109 389.473 554.987C385.563 558.864 380.928 561.933 375.833 564.019C370.737 566.105 365.28 567.167 359.774 567.145Z" fill="#455A64"/>
<path d="M361.912 17.6183H324.624C323.408 17.6409 322.207 17.9029 321.092 18.3894C319.977 18.8759 318.968 19.5774 318.124 20.4538C317.28 21.3302 316.616 22.3643 316.172 23.4971C315.728 24.6298 315.511 25.8391 315.534 27.0557V33.816C315.557 35.0317 315.339 36.2399 314.895 37.3716C314.45 38.5033 313.787 39.5361 312.942 40.411C312.098 41.2858 311.089 41.9855 309.974 42.4699C308.858 42.9544 307.659 43.2141 306.443 43.2341L233.756 42.9067C231.297 42.8411 228.964 41.8023 227.271 40.0184C225.577 38.2345 224.661 35.8513 224.723 33.3923V26.632C224.785 24.1762 223.871 21.7958 222.182 20.0125C220.492 18.2291 218.165 17.1881 215.709 17.1175H202.593L169.947 16.9635C162.182 16.9172 154.716 19.9497 149.182 25.3969C143.648 30.8441 140.498 38.2622 140.422 46.0268L138.496 516.78C138.478 520.632 139.219 524.45 140.677 528.015C142.135 531.581 144.28 534.824 146.992 537.561C149.703 540.297 152.927 542.473 156.479 543.963C160.031 545.454 163.842 546.23 167.694 546.247L359.678 547.133C363.532 547.151 367.352 546.41 370.92 544.951C374.488 543.492 377.734 541.345 380.472 538.632C383.21 535.919 385.387 532.693 386.879 529.138C388.37 525.584 389.147 521.771 389.165 517.916L391.091 47.1631C391.137 39.3766 388.089 31.8904 382.617 26.3502C377.146 20.81 369.698 17.6692 361.912 17.6183Z" fill="white"/>
<path d="M336.413 484.327L193.658 483.71C192.175 483.71 190.981 482.092 191 480.128L191.154 442.783C191.154 440.857 192.368 439.2 193.851 439.2L336.606 439.855C337.428 439.997 338.163 440.451 338.658 441.122C339.153 441.793 339.37 442.63 339.264 443.457L339.129 480.764C339.129 482.747 337.896 484.346 336.413 484.327Z" fill="#C996CC"/>
<path d="M248.496 466.049C248.073 466.049 247.667 465.981 247.277 465.846C246.892 465.71 246.594 465.531 246.382 465.309L246.618 464.845C246.824 465.051 247.098 465.219 247.439 465.349C247.781 465.474 248.133 465.537 248.496 465.537C249.006 465.537 249.388 465.444 249.643 465.26C249.898 465.07 250.025 464.826 250.025 464.528C250.025 464.301 249.955 464.119 249.814 463.983C249.678 463.848 249.51 463.745 249.309 463.674C249.109 463.599 248.83 463.517 248.472 463.431C248.044 463.322 247.702 463.219 247.447 463.122C247.193 463.019 246.973 462.864 246.789 462.658C246.61 462.452 246.52 462.173 246.52 461.821C246.52 461.533 246.596 461.273 246.748 461.04C246.9 460.801 247.133 460.612 247.447 460.471C247.762 460.33 248.152 460.259 248.618 460.259C248.944 460.259 249.261 460.305 249.57 460.398C249.884 460.484 250.155 460.606 250.383 460.763L250.179 461.243C249.941 461.086 249.686 460.969 249.415 460.894C249.144 460.812 248.878 460.772 248.618 460.772C248.12 460.772 247.743 460.869 247.488 461.064C247.239 461.254 247.114 461.501 247.114 461.804C247.114 462.032 247.182 462.216 247.317 462.357C247.458 462.493 247.632 462.598 247.838 462.674C248.049 462.745 248.331 462.823 248.683 462.91C249.101 463.013 249.437 463.116 249.692 463.219C249.952 463.317 250.171 463.468 250.35 463.674C250.529 463.875 250.619 464.149 250.619 464.496C250.619 464.783 250.54 465.046 250.383 465.284C250.231 465.518 249.995 465.705 249.675 465.846C249.356 465.981 248.962 466.049 248.496 466.049ZM251.93 460.308H252.531V466H251.93V460.308ZM259.14 460.308V466H258.644L254.985 461.381V466H254.383V460.308H254.879L258.547 464.927V460.308H259.14ZM265.007 463.154H265.584V465.325C265.318 465.558 265.004 465.737 264.641 465.862C264.278 465.986 263.895 466.049 263.494 466.049C262.925 466.049 262.413 465.924 261.957 465.675C261.502 465.425 261.144 465.081 260.884 464.642C260.624 464.198 260.494 463.702 260.494 463.154C260.494 462.607 260.624 462.113 260.884 461.674C261.144 461.23 261.502 460.883 261.957 460.633C262.413 460.384 262.928 460.259 263.502 460.259C263.936 460.259 264.334 460.33 264.698 460.471C265.061 460.606 265.367 460.81 265.616 461.081L265.242 461.463C264.793 461.018 264.221 460.796 263.527 460.796C263.066 460.796 262.649 460.899 262.275 461.105C261.906 461.306 261.616 461.587 261.404 461.951C261.193 462.308 261.087 462.71 261.087 463.154C261.087 463.599 261.193 464 261.404 464.357C261.616 464.715 261.906 464.997 262.275 465.203C262.643 465.409 263.058 465.512 263.519 465.512C264.104 465.512 264.6 465.366 265.007 465.073V463.154ZM271.708 466.049C270.971 466.049 270.396 465.837 269.984 465.415C269.572 464.992 269.366 464.376 269.366 463.569V460.308H269.968V463.544C269.968 464.206 270.117 464.699 270.415 465.024C270.713 465.349 271.144 465.512 271.708 465.512C272.277 465.512 272.711 465.349 273.009 465.024C273.307 464.699 273.456 464.206 273.456 463.544V460.308H274.042V463.569C274.042 464.376 273.836 464.992 273.424 465.415C273.017 465.837 272.445 466.049 271.708 466.049ZM277.985 460.308C278.712 460.308 279.281 460.482 279.693 460.829C280.105 461.175 280.311 461.652 280.311 462.26C280.311 462.867 280.105 463.344 279.693 463.691C279.281 464.032 278.712 464.203 277.985 464.203H276.457V466H275.855V460.308H277.985ZM277.969 463.674C278.533 463.674 278.964 463.552 279.262 463.309C279.56 463.059 279.709 462.71 279.709 462.26C279.709 461.799 279.56 461.446 279.262 461.203C278.964 460.953 278.533 460.829 277.969 460.829H276.457V463.674H277.969Z" fill="#E8E8E3"/>
<path d="M221.803 156.002L172.267 155.777L172.226 164.868L221.762 165.092L221.803 156.002Z" fill="#C996CC"/>
<path opacity="0.1" d="M221.803 156.002L172.267 155.777L172.226 164.868L221.762 165.092L221.803 156.002Z" fill="black"/>
<path d="M367.016 211.817C367.405 211.778 367.787 211.687 368.152 211.547C368.685 211.339 369.149 210.984 369.489 210.524C369.83 210.064 370.034 209.518 370.078 208.947C370.078 205.885 370.078 201.416 370.078 195.677C370.078 192.807 370.078 189.591 370.078 186.047C370.078 185.18 370.078 184.275 370.078 183.37C370.204 182.491 370.012 181.597 369.539 180.847C369.274 180.487 368.929 180.194 368.531 179.99C368.133 179.786 367.694 179.677 367.247 179.672H364.242H336.412L175.321 179.075C174.909 179.068 174.501 179.161 174.132 179.345C173.763 179.529 173.444 179.8 173.202 180.134C172.737 180.888 172.559 181.783 172.702 182.657C172.702 184.583 172.702 186.509 172.702 188.435C172.702 192.287 172.702 196.139 172.702 199.991C172.702 201.917 172.702 203.843 172.702 205.769C172.622 206.666 172.622 207.569 172.702 208.466C172.803 208.85 172.991 209.206 173.251 209.507C173.512 209.807 173.838 210.044 174.204 210.199C174.583 210.35 174.99 210.422 175.398 210.411H185.201L227.978 210.642L300.395 211.085L349.219 211.47L362.49 211.624H365.937C366.727 211.624 367.112 211.624 367.112 211.624H365.937H362.49H349.219H300.395L227.978 211.393L185.201 211.22H175.398C174.858 211.242 174.32 211.15 173.819 210.95C173.312 210.734 172.861 210.404 172.5 209.987C172.14 209.57 171.879 209.076 171.739 208.543C171.627 208.037 171.588 207.518 171.623 207.002V205.577C171.623 203.651 171.623 201.725 171.623 199.799C171.623 195.947 171.623 192.095 171.623 188.243C171.623 186.317 171.623 184.391 171.623 182.465C171.586 181.952 171.586 181.437 171.623 180.924C171.695 180.357 171.914 179.819 172.259 179.364C172.591 178.899 173.031 178.521 173.54 178.263C174.05 178.005 174.615 177.874 175.186 177.881L336.277 178.767L364.107 178.959H367.112C367.641 178.96 368.163 179.088 368.632 179.332C369.102 179.577 369.505 179.932 369.808 180.365C370.351 181.203 370.571 182.209 370.425 183.197C370.425 184.102 370.425 185.007 370.425 185.874C370.425 189.379 370.425 192.595 370.425 195.504C370.425 201.282 370.29 205.711 370.251 208.793C370.204 209.386 369.989 209.952 369.631 210.427C369.272 210.901 368.786 211.263 368.229 211.47C367.865 211.696 367.444 211.816 367.016 211.817Z" fill="#E0E0E0"/>
<path d="M277.746 188.743H187.147V197.237H277.746V188.743Z" fill="#C996CC"/>
<path opacity="0.2" d="M277.746 188.743H187.147V197.237H277.746V188.743Z" fill="white"/>
<path d="M221.465 238.933L171.929 238.708L171.888 247.799L221.424 248.024L221.465 238.933Z" fill="#C996CC"/>
<path opacity="0.1" d="M221.465 238.933L171.929 238.708L171.888 247.799L221.424 248.024L221.465 238.933Z" fill="black"/>
<path d="M365.764 294.75C366.153 294.703 366.539 294.632 366.92 294.539C367.457 294.367 367.952 294.083 368.371 293.704C368.79 293.325 369.122 292.861 369.346 292.343C369.65 291.565 369.768 290.728 369.693 289.897C369.693 288.972 369.693 287.971 369.693 286.854C369.693 284.62 369.693 282.077 369.693 279.15V266.92C369.785 266.034 369.589 265.143 369.134 264.377C368.659 263.592 367.912 263.01 367.035 262.74C366.076 262.569 365.099 262.517 364.127 262.586H336.412L175.879 261.989C175.016 261.991 174.183 262.307 173.534 262.877C172.886 263.447 172.467 264.234 172.355 265.09C172.355 266.92 172.355 268.942 172.355 270.868C172.355 274.72 172.355 278.572 172.355 282.424C172.355 284.35 172.355 286.276 172.355 288.202C172.283 289.102 172.322 290.008 172.47 290.898C172.711 291.679 173.206 292.357 173.876 292.824C174.588 293.276 175.424 293.492 176.265 293.441H178.942H184.508L227.13 293.653L299.298 294.096L347.948 294.481L361.18 294.635H364.628H365.783H364.628H361.18H347.948H299.298L227.092 294.558L184.469 294.404H176.091C175.05 294.466 174.016 294.189 173.145 293.614C172.268 293.007 171.629 292.116 171.334 291.091C171.162 290.112 171.11 289.116 171.18 288.125C171.18 286.199 171.18 284.273 171.18 282.347C171.18 278.495 171.18 274.643 171.18 270.791C171.18 268.865 171.18 266.939 171.18 265.013C171.321 263.912 171.858 262.899 172.691 262.165C173.524 261.432 174.596 261.027 175.706 261.026L336.238 261.912L363.953 262.124C364.986 262.061 366.021 262.132 367.035 262.336C368.036 262.663 368.88 263.349 369.404 264.262C369.902 265.11 370.118 266.095 370.02 267.074C370.02 267.979 370.02 268.865 370.02 269.751C370.02 273.237 370.02 276.434 370.02 279.381C370.02 282.328 370.02 284.812 370.02 287.085C370.02 288.183 370.02 289.204 370.02 290.147C370.09 291.009 369.952 291.874 369.616 292.67C369.366 293.202 369.004 293.673 368.556 294.052C368.107 294.431 367.582 294.709 367.016 294.866C366.595 294.901 366.171 294.862 365.764 294.75Z" fill="#E0E0E0"/>
<path d="M221.092 325.465L171.556 325.241L171.515 334.331L221.051 334.556L221.092 325.465Z" fill="#C996CC"/>
<path opacity="0.1" d="M221.092 325.465L171.556 325.241L171.515 334.331L221.051 334.556L221.092 325.465Z" fill="black"/>
<path d="M365.379 381.247C365.768 381.201 366.154 381.13 366.534 381.035C367.07 380.865 367.563 380.583 367.981 380.208C368.4 379.833 368.734 379.373 368.961 378.859C369.263 378.081 369.381 377.244 369.308 376.413C369.308 375.469 369.308 374.487 369.308 373.351C369.308 371.136 369.308 368.574 369.308 365.647V353.416C369.4 352.531 369.204 351.639 368.749 350.874C368.263 350.103 367.519 349.53 366.65 349.256C365.691 349.078 364.714 349.02 363.741 349.083H336.026L175.494 348.486C174.631 348.488 173.797 348.803 173.149 349.374C172.501 349.944 172.082 350.731 171.97 351.587C171.97 353.513 171.97 355.439 171.97 357.365C171.97 361.217 171.97 365.069 171.97 368.921C171.97 370.847 171.97 372.773 171.97 374.699C171.898 375.592 171.937 376.492 172.085 377.376C172.316 378.162 172.813 378.843 173.491 379.302C174.198 379.764 175.037 379.98 175.879 379.918H184.258L226.88 380.149L299.047 380.592L347.698 380.978L360.929 381.132H364.377C365.147 381.132 365.533 381.132 365.533 381.132C365.533 381.132 365.147 381.132 364.377 381.132H360.929H347.698H299.047L226.88 380.92L184.258 380.746H175.879C174.837 380.817 173.8 380.539 172.933 379.957C172.056 379.35 171.417 378.458 171.122 377.434C170.95 376.455 170.898 375.459 170.968 374.468C170.968 372.542 170.968 370.616 170.968 368.69C170.968 364.838 170.968 360.986 170.968 357.134C170.968 355.208 170.968 353.282 170.968 351.259C171.104 350.16 171.637 349.148 172.467 348.413C173.297 347.679 174.367 347.273 175.475 347.272L336.007 348.158L363.722 348.37C364.754 348.307 365.79 348.378 366.804 348.582C367.804 348.909 368.648 349.595 369.173 350.508C369.671 351.356 369.887 352.341 369.789 353.32C369.789 354.225 369.789 355.131 369.789 355.997C369.789 359.483 369.789 362.68 369.789 365.627C369.789 368.574 369.789 371.059 369.789 373.331C369.789 374.429 369.789 375.45 369.789 376.394C369.863 377.255 369.724 378.122 369.385 378.917C369.135 379.448 368.773 379.919 368.324 380.298C367.876 380.677 367.35 380.955 366.785 381.112C366.333 381.267 365.851 381.313 365.379 381.247Z" fill="#E0E0E0"/>
<path d="M275.811 274.078L185.213 273.667L185.175 282.161L275.773 282.572L275.811 274.078Z" fill="#C996CC"/>
<path opacity="0.2" d="M275.811 274.078L185.213 273.667L185.175 282.161L275.773 282.572L275.811 274.078Z" fill="white"/>
<path d="M193.406 365.531C193.349 366.306 193.066 367.047 192.592 367.662C192.118 368.277 191.474 368.74 190.739 368.993C190.004 369.245 189.212 369.277 188.46 369.083C187.707 368.889 187.028 368.479 186.507 367.903C185.986 367.327 185.645 366.611 185.527 365.843C185.41 365.075 185.52 364.289 185.844 363.584C186.168 362.878 186.693 362.283 187.352 361.872C188.012 361.462 188.777 361.254 189.554 361.274C190.627 361.334 191.633 361.815 192.354 362.612C193.075 363.408 193.453 364.457 193.406 365.531Z" fill="#C996CC"/>
<path d="M205.675 365.589C205.713 366.132 205.638 366.677 205.457 367.19C205.275 367.703 204.99 368.173 204.618 368.571C204.247 368.969 203.798 369.286 203.299 369.504C202.8 369.721 202.261 369.833 201.717 369.833C201.173 369.833 200.634 369.721 200.135 369.504C199.636 369.286 199.187 368.969 198.815 368.571C198.444 368.173 198.159 367.703 197.977 367.19C197.795 366.677 197.721 366.132 197.759 365.589C197.721 365.046 197.795 364.501 197.977 363.988C198.159 363.475 198.444 363.004 198.815 362.606C199.187 362.208 199.636 361.891 200.135 361.674C200.634 361.457 201.173 361.345 201.717 361.345C202.261 361.345 202.8 361.457 203.299 361.674C203.798 361.891 204.247 362.208 204.618 362.606C204.99 363.004 205.275 363.475 205.457 363.988C205.638 364.501 205.713 365.046 205.675 365.589Z" fill="#C996CC"/>
<path d="M217.962 365.646C217.906 366.421 217.623 367.162 217.149 367.778C216.674 368.393 216.03 368.856 215.296 369.108C214.561 369.361 213.768 369.392 213.016 369.198C212.264 369.005 211.585 368.594 211.064 368.018C210.543 367.442 210.202 366.726 210.084 365.958C209.966 365.19 210.076 364.405 210.401 363.699C210.725 362.993 211.249 362.398 211.909 361.988C212.568 361.577 213.334 361.369 214.11 361.39C215.182 361.455 216.185 361.936 216.905 362.732C217.625 363.528 218.005 364.574 217.962 365.646Z" fill="#C996CC"/>
<path d="M230.231 365.704C230.174 366.479 229.891 367.22 229.417 367.835C228.943 368.451 228.299 368.913 227.564 369.166C226.83 369.418 226.037 369.45 225.285 369.256C224.533 369.062 223.854 368.652 223.333 368.076C222.811 367.5 222.471 366.784 222.353 366.016C222.235 365.248 222.345 364.463 222.669 363.757C222.994 363.051 223.518 362.456 224.178 362.046C224.837 361.635 225.603 361.427 226.379 361.448C227.45 361.512 228.454 361.994 229.174 362.79C229.894 363.586 230.273 364.632 230.231 365.704Z" fill="#C996CC"/>
<path d="M242.5 365.743C242.447 366.519 242.167 367.262 241.695 367.88C241.223 368.498 240.579 368.964 239.845 369.219C239.11 369.475 238.317 369.509 237.563 369.317C236.81 369.125 236.129 368.716 235.606 368.141C235.083 367.565 234.74 366.849 234.621 366.08C234.502 365.312 234.611 364.525 234.935 363.818C235.259 363.111 235.784 362.515 236.444 362.104C237.104 361.693 237.87 361.485 238.648 361.506C239.715 361.57 240.716 362.049 241.435 362.841C242.155 363.632 242.537 364.674 242.5 365.743Z" fill="#C996CC"/>
<path d="M254.788 365.801C254.735 366.572 254.458 367.312 253.991 367.929C253.523 368.545 252.886 369.011 252.156 369.27C251.427 369.529 250.639 369.569 249.887 369.385C249.136 369.201 248.454 368.802 247.927 368.236C247.399 367.67 247.049 366.962 246.919 366.199C246.788 365.437 246.884 364.653 247.193 363.944C247.503 363.235 248.013 362.631 248.661 362.209C249.308 361.786 250.066 361.561 250.839 361.563C251.924 361.604 252.949 362.072 253.689 362.866C254.429 363.661 254.824 364.716 254.788 365.801Z" fill="#C996CC"/>
<path d="M267.056 365.858C267.094 366.401 267.02 366.946 266.838 367.459C266.656 367.973 266.371 368.443 266 368.841C265.629 369.239 265.179 369.556 264.68 369.773C264.181 369.99 263.643 370.102 263.098 370.102C262.554 370.102 262.016 369.99 261.516 369.773C261.017 369.556 260.568 369.239 260.197 368.841C259.826 368.443 259.54 367.973 259.358 367.459C259.177 366.946 259.103 366.401 259.14 365.858C259.103 365.315 259.177 364.77 259.358 364.257C259.54 363.744 259.826 363.274 260.197 362.876C260.568 362.478 261.017 362.161 261.516 361.944C262.016 361.727 262.554 361.615 263.098 361.615C263.643 361.615 264.181 361.727 264.68 361.944C265.179 362.161 265.629 362.478 266 362.876C266.371 363.274 266.656 363.744 266.838 364.257C267.02 364.77 267.094 365.315 267.056 365.858Z" fill="#C996CC"/>
<path d="M279.325 365.916C279.272 366.688 278.995 367.428 278.528 368.044C278.06 368.661 277.423 369.127 276.694 369.386C275.965 369.644 275.176 369.684 274.424 369.501C273.673 369.317 272.991 368.917 272.464 368.351C271.937 367.785 271.586 367.077 271.456 366.315C271.325 365.552 271.421 364.768 271.73 364.059C272.04 363.35 272.55 362.747 273.198 362.324C273.846 361.901 274.603 361.677 275.377 361.679C276.462 361.719 277.486 362.188 278.226 362.982C278.966 363.776 279.361 364.831 279.325 365.916Z" fill="#C996CC"/>
<path d="M291.593 365.974C291.54 366.75 291.26 367.493 290.788 368.111C290.316 368.729 289.673 369.195 288.939 369.45C288.204 369.706 287.411 369.74 286.657 369.548C285.903 369.356 285.222 368.947 284.699 368.372C284.176 367.796 283.834 367.08 283.714 366.311C283.595 365.543 283.704 364.756 284.029 364.049C284.353 363.342 284.877 362.746 285.537 362.335C286.198 361.924 286.964 361.716 287.741 361.737C288.809 361.801 289.809 362.281 290.529 363.072C291.249 363.864 291.631 364.905 291.593 365.974Z" fill="#C996CC"/>
<g opacity="0.2">
<path opacity="0.2" d="M193.406 365.531C193.349 366.306 193.066 367.047 192.592 367.662C192.118 368.277 191.474 368.74 190.739 368.993C190.004 369.245 189.212 369.277 188.46 369.083C187.707 368.889 187.028 368.479 186.507 367.903C185.986 367.327 185.645 366.611 185.527 365.843C185.41 365.075 185.52 364.289 185.844 363.584C186.168 362.878 186.693 362.283 187.352 361.872C188.012 361.462 188.777 361.254 189.554 361.274C190.627 361.334 191.633 361.815 192.354 362.612C193.075 363.408 193.453 364.457 193.406 365.531Z" fill="white"/>
<path opacity="0.2" d="M205.674 365.589C205.712 366.132 205.638 366.677 205.456 367.19C205.275 367.703 204.989 368.173 204.618 368.571C204.247 368.969 203.798 369.286 203.298 369.504C202.799 369.721 202.261 369.833 201.717 369.833C201.172 369.833 200.634 369.721 200.135 369.504C199.635 369.286 199.186 368.969 198.815 368.571C198.444 368.173 198.158 367.703 197.977 367.19C197.795 366.677 197.721 366.132 197.759 365.589C197.721 365.046 197.795 364.501 197.977 363.988C198.158 363.475 198.444 363.004 198.815 362.606C199.186 362.208 199.635 361.891 200.135 361.674C200.634 361.457 201.172 361.345 201.717 361.345C202.261 361.345 202.799 361.457 203.298 361.674C203.798 361.891 204.247 362.208 204.618 362.606C204.989 363.004 205.275 363.475 205.456 363.988C205.638 364.501 205.712 365.046 205.674 365.589Z" fill="white"/>
<path opacity="0.2" d="M217.962 365.646C217.906 366.421 217.623 367.162 217.149 367.778C216.674 368.393 216.03 368.856 215.296 369.108C214.561 369.361 213.768 369.392 213.016 369.198C212.264 369.005 211.585 368.594 211.064 368.018C210.543 367.442 210.202 366.726 210.084 365.958C209.966 365.19 210.076 364.405 210.401 363.699C210.725 362.993 211.249 362.398 211.909 361.988C212.568 361.577 213.334 361.369 214.11 361.39C215.182 361.455 216.185 361.936 216.905 362.732C217.625 363.528 218.005 364.574 217.962 365.646Z" fill="white"/>
<path opacity="0.2" d="M230.231 365.704C230.174 366.479 229.891 367.22 229.417 367.835C228.943 368.451 228.299 368.913 227.564 369.166C226.83 369.418 226.037 369.45 225.285 369.256C224.533 369.062 223.854 368.652 223.333 368.076C222.811 367.5 222.471 366.784 222.353 366.016C222.235 365.248 222.345 364.463 222.669 363.757C222.994 363.051 223.518 362.456 224.178 362.046C224.837 361.635 225.603 361.427 226.379 361.448C227.45 361.512 228.454 361.994 229.174 362.79C229.894 363.586 230.273 364.632 230.231 365.704Z" fill="white"/>
<path opacity="0.2" d="M242.5 365.743C242.447 366.519 242.167 367.262 241.695 367.88C241.223 368.498 240.579 368.964 239.845 369.219C239.11 369.475 238.317 369.509 237.563 369.317C236.809 369.125 236.129 368.716 235.606 368.141C235.082 367.565 234.74 366.849 234.621 366.08C234.501 365.312 234.611 364.525 234.935 363.818C235.259 363.111 235.784 362.515 236.444 362.104C237.104 361.693 237.87 361.485 238.648 361.506C239.715 361.57 240.716 362.049 241.435 362.841C242.155 363.632 242.537 364.674 242.5 365.743Z" fill="white"/>
<path opacity="0.2" d="M254.788 365.801C254.735 366.572 254.458 367.312 253.99 367.928C253.523 368.545 252.885 369.011 252.156 369.27C251.427 369.529 250.638 369.569 249.887 369.385C249.135 369.201 248.454 368.802 247.926 368.236C247.399 367.67 247.049 366.962 246.918 366.199C246.788 365.437 246.883 364.653 247.193 363.944C247.502 363.235 248.013 362.631 248.66 362.209C249.308 361.786 250.066 361.561 250.839 361.563C251.924 361.604 252.949 362.072 253.689 362.866C254.429 363.661 254.824 364.716 254.788 365.801Z" fill="white"/>
<path opacity="0.2" d="M267.056 365.858C267.094 366.401 267.02 366.946 266.838 367.459C266.656 367.972 266.371 368.443 266 368.841C265.629 369.239 265.179 369.556 264.68 369.773C264.181 369.99 263.643 370.102 263.098 370.102C262.554 370.102 262.016 369.99 261.516 369.773C261.017 369.556 260.568 369.239 260.197 368.841C259.826 368.443 259.54 367.972 259.358 367.459C259.177 366.946 259.103 366.401 259.14 365.858C259.103 365.315 259.177 364.77 259.358 364.257C259.54 363.744 259.826 363.274 260.197 362.876C260.568 362.478 261.017 362.161 261.516 361.944C262.016 361.727 262.554 361.615 263.098 361.615C263.643 361.615 264.181 361.727 264.68 361.944C265.179 362.161 265.629 362.478 266 362.876C266.371 363.274 266.656 363.744 266.838 364.257C267.02 364.77 267.094 365.315 267.056 365.858Z" fill="white"/>
<path opacity="0.2" d="M279.325 365.916C279.272 366.688 278.995 367.428 278.527 368.044C278.06 368.661 277.422 369.127 276.693 369.386C275.964 369.644 275.175 369.684 274.424 369.501C273.672 369.317 272.991 368.917 272.464 368.351C271.936 367.785 271.586 367.077 271.456 366.315C271.325 365.552 271.421 364.768 271.73 364.059C272.04 363.35 272.55 362.747 273.198 362.324C273.845 361.901 274.603 361.677 275.376 361.679C276.461 361.719 277.486 362.188 278.226 362.982C278.966 363.776 279.361 364.831 279.325 365.916Z" fill="white"/>
<path opacity="0.2" d="M291.593 365.974C291.54 366.75 291.26 367.493 290.788 368.111C290.316 368.729 289.673 369.195 288.939 369.45C288.204 369.706 287.411 369.74 286.657 369.548C285.903 369.356 285.222 368.947 284.699 368.372C284.176 367.796 283.834 367.08 283.714 366.311C283.595 365.543 283.704 364.756 284.029 364.049C284.353 363.342 284.877 362.746 285.537 362.335C286.198 361.924 286.964 361.716 287.741 361.737C288.809 361.801 289.809 362.281 290.529 363.072C291.249 363.864 291.631 364.905 291.593 365.974Z" fill="white"/>
</g>
<path d="M274.163 87.9366C275.501 87.3474 276.636 86.3777 277.427 85.1483C278.218 83.9189 278.63 82.484 278.612 81.0222C278.662 80.072 278.518 79.1215 278.189 78.2287C277.859 77.3359 277.352 76.5195 276.697 75.8293C276.042 75.139 275.253 74.5893 274.379 74.2136C273.504 73.838 272.563 73.6443 271.611 73.6443C270.659 73.6443 269.718 73.838 268.844 74.2136C267.969 74.5893 267.181 75.139 266.526 75.8293C265.871 76.5195 265.363 77.3359 265.034 78.2287C264.704 79.1215 264.56 80.072 264.61 81.0222C264.581 82.4987 264.989 83.9507 265.785 85.195C266.58 86.4394 267.726 87.4202 269.078 88.0136C258.293 89.6314 258.774 101.342 258.774 101.342L284.275 101.457C284.275 101.457 284.872 89.5351 274.163 87.9366Z" fill="#C996CC"/>
<path opacity="0.1" d="M274.163 87.9366C275.501 87.3474 276.636 86.3777 277.427 85.1483C278.218 83.9189 278.63 82.484 278.612 81.0222C278.662 80.072 278.518 79.1215 278.189 78.2287C277.859 77.3359 277.352 76.5195 276.697 75.8293C276.042 75.139 275.253 74.5893 274.379 74.2136C273.504 73.838 272.563 73.6443 271.611 73.6443C270.659 73.6443 269.718 73.838 268.844 74.2136C267.969 74.5893 267.181 75.139 266.526 75.8293C265.871 76.5195 265.363 77.3359 265.034 78.2287C264.704 79.1215 264.56 80.072 264.61 81.0222C264.581 82.4987 264.989 83.9507 265.785 85.195C266.58 86.4394 267.726 87.4202 269.078 88.0136C258.293 89.6314 258.774 101.342 258.774 101.342L284.275 101.457C284.275 101.457 284.872 89.5351 274.163 87.9366Z" fill="black"/>
<path d="M315.6 109.01L224.713 108.597L224.664 119.46L315.551 119.872L315.6 109.01Z" fill="#C996CC"/>
<path opacity="0.2" d="M315.6 109.01L224.713 108.597L224.664 119.46L315.551 119.872L315.6 109.01Z" fill="white"/>
<path d="M42.7858 142.426H42.0149L39.7842 142.59C38.5771 142.663 37.3766 142.822 36.1922 143.066C35.425 143.174 34.664 143.322 33.9123 143.509L31.3701 144.214C27.043 145.542 22.9604 147.564 19.2819 150.201C14.4218 153.729 10.3636 158.245 7.37414 163.454C5.61706 166.456 4.21879 169.654 3.20807 172.983C2.14603 176.601 1.53456 180.336 1.38747 184.104C1.28972 186.083 1.32259 188.066 1.48588 190.041C1.48588 191.042 1.76471 192.042 1.89593 193.059C2.00629 194.084 2.19825 195.099 2.46999 196.093C3.94488 202.675 6.93748 208.821 11.2091 214.041C15.4807 219.261 20.913 223.41 27.0728 226.158C31.531 228.082 36.3094 229.155 41.162 229.323C46.1739 229.599 51.1909 228.88 55.9236 227.208L57.367 226.666H57.5638L57.7278 226.765L78.4106 237.262L77.8037 237.787C75.5895 230.931 73.4572 224.288 71.3906 217.908V217.662L71.571 217.481C76.5883 212.428 80.313 206.239 82.429 199.439C84.3456 193.223 84.905 186.667 84.0692 180.216C83.3258 174.483 81.4824 168.947 78.6402 163.913C76.1903 159.588 73.0297 155.707 69.2912 152.432C66.2067 149.839 62.7929 147.666 59.1384 145.969C56.3733 144.777 53.4934 143.87 50.5438 143.263L47.2635 142.722L44.8852 142.541L43.4418 142.443H42.9498C43.1133 142.425 43.2783 142.425 43.4418 142.443H44.9016L47.2799 142.541L50.5602 143.017C53.5465 143.579 56.4656 144.453 59.2696 145.625C62.9869 147.302 66.4623 149.47 69.6028 152.071C73.4101 155.332 76.6376 159.213 79.1487 163.552C82.0716 168.64 83.9715 174.251 84.7417 180.069C85.6468 186.62 85.1265 193.289 83.2163 199.62C81.0864 206.561 77.3042 212.881 72.1943 218.039L72.2927 217.613C74.3593 223.993 76.508 230.636 78.7386 237.475L79.0503 238.476L78.1153 238L57.4326 227.519H57.7934L56.3173 228.061C51.4934 229.758 46.3836 230.494 41.2768 230.226C36.3196 230.037 31.4412 228.924 26.8924 226.945C18.2153 223.229 10.996 216.77 6.34083 208.559C4.1986 204.766 2.63414 200.675 1.6991 196.421C1.44305 195.401 1.25132 194.366 1.12504 193.321C0.993824 192.288 0.780604 191.271 0.731398 190.254C0.287495 184.418 0.904321 178.55 2.55201 172.934C3.58789 169.559 5.02513 166.321 6.83289 163.29C9.89367 158.034 14.0364 153.489 18.9867 149.955C22.7257 147.311 26.8769 145.305 31.2716 144.017L33.8467 143.361C34.6047 143.186 35.3711 143.049 36.143 142.951C37.3397 142.73 38.5514 142.598 39.7678 142.558L42.0149 142.476C42.2704 142.441 42.528 142.425 42.7858 142.426Z" fill="#0FA1F4"/>
<path d="M52.1348 180.676H49.1005L42.5397 171.458V165.405C42.5397 165.405 37.8488 165.11 38.4065 173.032C38.9641 180.954 38.4065 178.937 38.4065 178.937C38.4065 178.937 28.4505 178.937 27.6304 179.839C26.8103 180.741 26.7611 190.353 26.6463 195.716C26.5835 197.009 26.9545 198.286 27.7004 199.344C28.4463 200.402 29.5243 201.18 30.7632 201.555C31.1105 201.651 31.469 201.701 31.8293 201.703C34.3224 201.703 47.0011 199.685 47.0011 199.685H52.2333L52.1348 180.676Z" fill="#0FA1F4"/>
<path d="M60.8113 179.052L58.9415 199.784H53.7585V179.478L60.8113 179.052Z" fill="#0FA1F4"/>
</svg>
