<svg width="59" height="59" viewBox="0 0 59 59" fill="none" xmlns="http://www.w3.org/2000/svg">
<circle cx="29.5" cy="29.5" r="29.5" fill="#916BBF"/>
<g clip-path="url(#clip0_107_4)">
<path d="M22.3872 16.8928L22.4138 16.9513C22.4776 17.0787 22.6688 17.1744 22.8654 17.1744H34.2129C34.4147 17.1744 34.6007 17.0788 34.6697 16.9406L34.6963 16.8822V15.7559L34.691 15.7453V14.6881L34.6644 14.6297C34.5901 14.4809 34.3776 14.4119 34.2129 14.4119H31.4822C31.1635 14.4119 30.8713 14.295 30.6694 14.0878C30.5154 13.9284 30.4304 13.7319 30.4357 13.53C30.441 13.3866 30.4197 13.2484 30.3719 13.1103C30.1966 12.5737 29.6122 12.1381 28.911 12.0266C28.7888 12.0106 28.6666 12 28.5444 12C28.0026 12 27.5032 12.1753 27.1366 12.4888C26.8179 12.765 26.6372 13.1209 26.6372 13.4928C26.6372 13.7266 26.5469 13.9391 26.3769 14.1091C26.1857 14.3056 25.9147 14.4119 25.6119 14.4119H22.8601C22.6422 14.4119 22.4563 14.5128 22.3926 14.6669L22.3766 14.7147V15.825L22.3819 15.8356V16.8928H22.3872ZM22.8494 25.1272H25.4101C25.7076 25.1272 25.9519 24.8881 25.9519 24.5853V22.03C25.9519 21.7325 25.7076 21.4881 25.4101 21.4881H22.8494C22.5519 21.4881 22.3076 21.7325 22.3076 22.03V24.5853C22.3022 24.8881 22.5466 25.1272 22.8494 25.1272ZM23.3913 22.5719H24.8629V24.0381H23.3913V22.5719ZM22.3022 29.68C22.3022 29.9775 22.5466 30.2219 22.8441 30.2219H25.4047C25.7022 30.2219 25.9466 29.9775 25.9466 29.68V27.1247C25.9466 26.8272 25.7022 26.5828 25.4047 26.5828H22.8441C22.5466 26.5828 22.3022 26.8272 22.3022 27.1247V29.68ZM23.3913 27.6666H24.8629V29.1328H23.3913V27.6666ZM25.9519 34.78V32.2247C25.9519 31.9272 25.7076 31.6828 25.4101 31.6828H22.8494C22.5519 31.6828 22.3076 31.9272 22.3076 32.2247V34.78C22.3076 35.0775 22.5519 35.3219 22.8494 35.3219H25.4101C25.7076 35.3219 25.9519 35.0775 25.9519 34.78ZM24.8629 34.2328H23.3913V32.7666H24.8629V34.2328ZM34.2235 22.7631H27.3863C27.0835 22.7631 26.8444 23.0075 26.8444 23.305C26.8444 23.6078 27.0888 23.8469 27.3863 23.8469H34.2288C34.5316 23.8469 34.7707 23.6025 34.7707 23.305C34.7707 23.0075 34.5263 22.7631 34.2235 22.7631ZM34.2235 27.8578H27.3863C27.0835 27.8578 26.8444 28.1022 26.8444 28.3997C26.8444 28.7025 27.0888 28.9416 27.3863 28.9416H34.2288C34.5316 28.9416 34.7707 28.6972 34.7707 28.3997C34.7707 28.1022 34.5263 27.8578 34.2235 27.8578ZM34.7707 33.4997C34.7707 33.1969 34.5263 32.9578 34.2288 32.9578H27.3863C27.0835 32.9578 26.8444 33.2022 26.8444 33.4997C26.8444 33.8025 27.0888 34.0416 27.3863 34.0416H34.2288C34.5263 34.0416 34.7707 33.7972 34.7707 33.4997ZM40.0035 35.1519C39.9929 35.1519 39.9822 35.1466 39.9663 35.1413C39.3713 34.9288 38.7338 34.8119 38.0644 34.8119C37.8891 34.8119 37.7191 34.8172 37.5544 34.8331C34.7069 35.0934 32.4757 37.4947 32.4757 40.4006C32.4757 40.9372 32.5501 41.4631 32.6935 41.9572C32.7041 41.9944 32.7147 42.0263 32.7254 42.0581C32.9591 42.8072 33.3469 43.4925 33.8516 44.0716C34.3722 44.6776 35.0179 45.1637 35.7442 45.4966C36.4704 45.8295 37.2602 46.0012 38.0591 46C41.1457 46 43.6585 43.4872 43.6585 40.4006C43.6585 38.0047 42.1338 35.9488 40.0035 35.1519ZM41.3582 38.7962L37.3897 42.7753C37.2835 42.8816 37.1401 42.9347 37.0019 42.9347C36.9336 42.9364 36.8655 42.9246 36.8017 42.9C36.7379 42.8754 36.6796 42.8384 36.6301 42.7913L34.7813 41.1019C34.5582 40.8947 34.5476 40.5547 34.7494 40.3316C34.9513 40.1138 35.2966 40.0978 35.5144 40.2997L36.9807 41.6437L40.5879 38.0259C40.8004 37.8134 41.1404 37.8134 41.3529 38.0259C41.5707 38.2384 41.5707 38.5837 41.3582 38.7962Z" fill="white"/>
<path d="M31.7956 42.7169H19.5237C19.2209 42.7169 18.9819 42.4725 18.9819 42.175V19.735C18.9819 19.4375 19.2209 19.1931 19.5237 19.1931H37.5491C37.8466 19.1931 38.0909 19.4375 38.0909 19.735V33.7228C38.6222 33.7228 39.1481 33.7919 39.6422 33.9141C40.0194 34.0044 40.3806 34.1266 40.7312 34.2859V17.8066C40.7312 17.1284 40.4622 16.4779 39.9831 15.9978C39.5041 15.5177 38.8541 15.2473 38.1759 15.2459H35.5037V16.8291C35.5037 17.4666 34.9194 17.9872 34.2075 17.9872H22.8653C22.1534 17.9872 21.5691 17.4666 21.5691 16.8291V15.2459H18.8969C18.2187 15.2473 17.5687 15.5177 17.0897 15.9978C16.6106 16.4779 16.3416 17.1284 16.3416 17.8066V42.4513C16.3416 43.8591 17.4891 45.0013 18.8969 45.0013H33.2194C32.5959 44.3433 32.1117 43.5664 31.7956 42.7169Z" fill="white"/>
<path d="M23.131 38.9769C22.8282 38.9769 22.5891 39.2212 22.5891 39.5187C22.5891 39.8216 22.8335 40.0606 23.131 40.0606H23.88C24.1829 40.0606 24.4219 39.8162 24.4219 39.5187C24.4219 39.2159 24.1775 38.9769 23.88 38.9769H23.131ZM25.7607 40.0659H26.5097C26.8125 40.0659 27.0516 39.8216 27.0516 39.5241C27.0516 39.2212 26.8072 38.9822 26.5097 38.9822H25.7607C25.4579 38.9822 25.2188 39.2266 25.2188 39.5241C25.2135 39.8216 25.4579 40.0659 25.7607 40.0659ZM28.3904 38.9769C28.0875 38.9769 27.8485 39.2212 27.8485 39.5187C27.8485 39.8216 28.0929 40.0606 28.3904 40.0606H29.1394C29.4422 40.0606 29.6813 39.8162 29.6813 39.5187C29.6813 39.2159 29.4369 38.9769 29.1394 38.9769H28.3904Z" fill="white"/>
</g>
<defs>
<clipPath id="clip0_107_4">
<rect width="34" height="34" fill="white" transform="translate(13 12)"/>
</clipPath>
</defs>
</svg>
